<svg width="33" height="23" viewBox="0 0 33 23" fill="none" xmlns="http://www.w3.org/2000/svg">
<path d="M4.36333 4.76837e-07H13.97L10.3033 7.66667H14.6667V23L-7.15256e-07 23V9.12333L4.36333 4.76837e-07ZM8.03 3.83333H6.63667L3.66667 10.0433V19.1667L11 19.1667V11.5L4.36333 11.5L8.03 3.83333ZM22.6967 4.76837e-07L32.3033 4.76837e-07L28.6367 7.66667H33V23L18.3333 23V9.12333L22.6967 4.76837e-07V4.76837e-07ZM26.3633 3.83333H24.97L22 10.0433V19.1667L29.3333 19.1667V11.5L22.6967 11.5L26.3633 3.83333Z" fill="#696969"/>
</svg>
