<svg xmlns="http://www.w3.org/2000/svg" viewBox="-3 -3 38 38" x="0px" y="0px" fill="currentColor"><title>mal baru23</title><g data-name="Layer 7"><path d="M28.68,6.58H20.34a1.49,1.49,0,0,1-1.29-.75l-.89-1.55a2.49,2.49,0,0,0-4.31,0l-.89,1.55a1.49,1.49,0,0,1-1.29.75H3.32A2.49,2.49,0,0,0,.83,9.07v17.4A2.49,2.49,0,0,0,3.32,29H28.68a2.49,2.49,0,0,0,2.49-2.49V9.07A2.49,2.49,0,0,0,28.68,6.58Zm1.49,19.89A1.49,1.49,0,0,1,28.68,28H3.32a1.49,1.49,0,0,1-1.49-1.49V9.07A1.49,1.49,0,0,1,3.32,7.58h8.34a2.5,2.5,0,0,0,2.16-1.25l.89-1.55a1.49,1.49,0,0,1,2.58,0l.89,1.55a2.5,2.5,0,0,0,2.16,1.25h8.34a1.49,1.49,0,0,1,1.49,1.49Z"/><path d="M24.37,17.27H7.63a.5.5,0,0,0,0,1H24.37a.5.5,0,1,0,0-1Z"/><path d="M24.37,23.17H7.63a.5.5,0,0,0,0,1H24.37a.5.5,0,0,0,0-1Z"/><path d="M24.37,11.37H7.63a.5.5,0,0,0,0,1H24.37a.5.5,0,0,0,0-1Z"/></g></svg>