<svg xmlns="http://www.w3.org/2000/svg" data-name="Layer 1" viewBox="-10 -10 120 120" x="0px" y="0px" fill="currentColor"><title>14</title><path d="M6.44932,58.52785A.93408.93408,0,0,1,5.672,57.77a45.25178,45.25178,0,0,1,0-15.54.9341.9341,0,0,1,.77731-.75784l11.41442-1.79039a3.24157,3.24157,0,0,0,2.11642-5.11291l-6.80482-9.32742a.93664.93664,0,0,1-.01387-1.08663A45.012,45.012,0,0,1,24.15474,13.16159a.93659.93659,0,0,1,1.08662.01387l9.32745,6.80478a3.2416,3.2416,0,0,0,5.11295-2.11647L41.4721,6.44938a.93407.93407,0,0,1,.75783-.77732,45.25245,45.25245,0,0,1,15.54,0,.9341.9341,0,0,1,.75783.77732l1.79034,11.41439a3.2416,3.2416,0,0,0,5.113,2.11647l9.32745-6.80478a.93658.93658,0,0,1,1.08661-.01387A45.01185,45.01185,0,0,1,86.83841,24.1548a.93663.93663,0,0,1-.01388,1.08663l-6.8048,9.32739a3.24159,3.24159,0,0,0,2.11644,5.11294l11.41438,1.79039a.93411.93411,0,0,1,.77732.75784,45.25178,45.25178,0,0,1,0,15.54.93409.93409,0,0,1-.77732.75784L82.13617,60.31824a3.23144,3.23144,0,0,0-2.71277,2.80249l-7.2146-7.2146A22.98217,22.98217,0,1,0,55.90625,72.20874l7.21515,7.2146a3.23161,3.23161,0,0,0-2.80328,2.71289L58.52778,93.55062a.9341.9341,0,0,1-.75783.77732,45.25245,45.25245,0,0,1-15.54,0,.93407.93407,0,0,1-.75783-.77732L39.68177,82.13625a3.24161,3.24161,0,0,0-5.113-2.11647l-9.32743,6.80476a.93659.93659,0,0,1-1.08662.01387A45.012,45.012,0,0,1,13.16147,75.8452a.93664.93664,0,0,1,.01387-1.08663l6.80482-9.32742a3.24157,3.24157,0,0,0-2.11642-5.11291ZM88.10353,80.966l5.77159,5.77154a.36948.36948,0,0,0,.61274-.143,11.843,11.843,0,0,0-14.829-14.7523L60.99756,53.18085a11.834,11.834,0,0,0-14.75227-14.829.36947.36947,0,0,0-.143.61274l5.77145,5.7715a5.36031,5.36031,0,0,1,.50281,7.14593,5.20988,5.20988,0,0,1-7.71092.37906l-5.8037-5.80364a.36865.36865,0,0,0-.61537.1549A11.84421,11.84421,0,0,0,53.181,60.99768L71.84222,79.65887a11.83512,11.83512,0,0,0,14.38515,14.9344.36866.36866,0,0,0,.15489-.61537l-5.80365-5.80371a5.21,5.21,0,0,1,.37917-7.71092A5.36011,5.36011,0,0,1,88.10353,80.966Z"/></svg>