<?xml version="1.0" encoding="UTF-8"?>
<svg width="1200pt" height="1200pt" version="1.1" viewBox="100 100 1000 1000" xmlns="http://www.w3.org/2000/svg">
 <g fill="currentColor">
  <path d="m957.84 612h-714.84c-6.6289 0-12-5.3711-12-12s5.3711-12 12-12h714.84c6.6289 0 12 5.3711 12 12s-5.3711 12-12 12z"/>
  <path d="m963 612c-3.207-0.011719-6.2734-1.3086-8.5195-3.6016l-357.48-360c-4.6719-4.7031-4.6445-12.305 0.058594-16.977 4.707-4.6758 12.309-4.6484 16.98 0.058594l357.96 360.12c3.375 3.4414 4.3633 8.5742 2.5039 13.023s-6.2031 7.3555-11.023 7.375z"/>
  <path d="m605.52 972c-4.8203-0.019531-9.1641-2.9258-11.023-7.375s-0.87109-9.582 2.5039-13.023l357.48-360c4.6406-4.8398 12.32-5 17.16-0.36328 4.8359 4.6406 5 12.324 0.35938 17.16l-357.48 360c-2.3594 2.4141-5.625 3.7188-9 3.6016z"/>
 </g>
</svg>
