<?xml version="1.0" encoding="UTF-8"?>
<svg width="1200pt" height="1200pt" version="1.1" viewBox="0 0 1200 1200" xmlns="http://www.w3.org/2000/svg">
 <g>
  <path d="m1200 600c0 214.36-114.36 412.44-300 519.62-185.64 107.18-414.36 107.18-600 0-185.64-107.18-300-305.26-300-519.62s114.36-412.44 300-519.62c185.64-107.18 414.36-107.18 600 0 185.64 107.18 300 305.26 300 519.62" fill="#fff"/>
  <path d="m600 312.83c-20.867 0-37.785 16.918-37.785 37.785v211.6h-211.6c-20.867 0-37.785 16.918-37.785 37.785 0 20.867 16.918 37.785 37.785 37.785h211.6v211.6c0 20.867 16.918 37.785 37.785 37.785s37.785-16.918 37.785-37.785v-211.6h211.6c20.867 0 37.785-16.918 37.785-37.785 0-20.871-16.918-37.785-37.785-37.785h-211.6v-211.6c0-20.867-16.918-37.785-37.785-37.785z" fill="#676767"/>
 </g>
</svg>
