<?xml version="1.0" encoding="UTF-8"?>
<svg width="1200pt" height="1200pt" version="1.1" viewBox="0 0 1200 1200" xmlns="http://www.w3.org/2000/svg">
 <g fill="currentColor">
  <path d="m1031.8 493.94-71.461-14.301c-5.6992-17.078-12.52-33.641-20.398-49.422l40.379-60.559c15.801-23.719 12.66-55.559-7.5-75.699l-66.762-66.762c-20.16-20.141-52.02-23.32-75.699-7.5l-60.859 40.559c-16.238-8.1602-32.699-15.078-49.141-20.621l-14.301-71.398c-5.5781-27.938-30.32-48.238-58.84-48.238h-94.398c-28.52 0-53.262 20.301-58.82 48.219l-14.301 71.422c-16.66 5.5781-33.141 12.461-49.238 20.539l-60.738-40.48c-23.762-15.82-55.578-12.641-75.719 7.5l-66.762 66.762c-20.16 20.141-23.301 52-7.5 75.699l40.559 60.859c-8.0195 16.039-14.879 32.48-20.461 49.102l-71.578 14.32c-27.961 5.6172-48.242 30.359-48.242 58.84v94.441c0 28.48 20.281 53.219 48.219 58.82l71.461 14.301c5.7188 17.121 12.559 33.68 20.398 49.422l-40.379 60.559c-15.801 23.719-12.66 55.559 7.5 75.699l66.762 66.762c20.141 20.141 51.98 23.32 75.719 7.5l60.84-40.559c16.238 8.1602 32.699 15.078 49.141 20.621l14.301 71.398c5.5977 27.953 30.32 48.254 58.84 48.254h94.422c28.52 0 53.238-20.301 58.82-48.238l14.301-71.461c17.141-5.6992 33.699-12.539 49.441-20.398l60.559 40.379c23.699 15.82 55.539 12.68 75.699-7.5l66.762-66.762c20.16-20.141 23.301-52 7.5-75.699l-40.559-60.859c8.1797-16.301 15.078-32.762 20.602-49.121l71.441-14.301c27.93-5.6172 48.211-30.359 48.211-58.84v-94.441c0-28.457-20.281-53.199-48.219-58.816zm8.2188 153.26c0 9.5-6.7617 17.738-16.078 19.602l-83 16.602c-7.2617 1.4414-13.121 6.8008-15.238 13.898-6.3008 21.16-15.32 42.66-26.762 63.879-3.5195 6.5-3.1406 14.441 0.96094 20.578l47.121 70.699c5.2812 7.9219 4.2188 18.52-2.5 25.238l-66.781 66.762c-6.6992 6.7188-17.281 7.7617-25.219 2.5l-70.422-46.941c-6.1602-4.1016-14.121-4.4805-20.621-0.94141-19.922 10.801-41.52 19.719-64.18 26.5-7.0781 2.1211-12.422 7.9805-13.859 15.238l-16.621 83.059c-1.8398 9.3672-10.102 16.129-19.602 16.129h-94.398c-9.5 0-17.762-6.7617-19.602-16.102l-16.602-82.98c-1.4414-7.2383-6.8008-13.121-13.879-15.238-21.301-6.3594-42.82-15.379-63.898-26.781-2.9805-1.6016-6.2383-2.3984-9.5195-2.3984-3.8789 0-7.7617 1.1406-11.102 3.3594l-70.68 47.121c-7.9219 5.2617-18.52 4.1992-25.262-2.5l-66.762-66.762c-6.7188-6.7188-7.7812-17.32-2.5-25.238l46.941-70.398c4.1016-6.1797 4.4805-14.102 0.94141-20.621-10.781-19.922-19.699-41.539-26.5-64.199-2.1211-7.0781-7.9805-12.422-15.238-13.859l-83.039-16.602c-9.3398-1.8594-16.102-10.102-16.102-19.602v-94.441c0-9.5 6.7617-17.738 16.078-19.602l83.141-16.621c7.2383-1.4414 13.102-6.7812 15.238-13.859 6.5-21.738 15.461-43.238 26.621-63.879 3.5195-6.5195 3.1406-14.461-0.96094-20.602l-47.121-70.699c-5.2812-7.9219-4.2188-18.52 2.5-25.238l66.762-66.762c6.7383-6.6992 17.34-7.7812 25.262-2.5l70.578 47.059c6.1602 4.1016 14.121 4.4805 20.602 0.96094 20.762-11.238 42.281-20.219 64-26.699 7.0781-2.1016 12.441-7.9609 13.879-15.238l16.602-83c1.8594-9.3164 10.102-16.078 19.621-16.078h94.422c9.5195 0 17.762 6.7617 19.602 16.078l16.602 82.98c1.4414 7.2383 6.8008 13.121 13.879 15.238 21.301 6.3594 42.82 15.379 63.898 26.781 6.5391 3.5195 14.461 3.1406 20.602-0.96094l70.699-47.121c7.9219-5.2617 18.48-4.2188 25.238 2.5l66.762 66.762c6.7188 6.7188 7.7812 17.32 2.5 25.238l-46.941 70.398c-4.1016 6.1797-4.4805 14.102-0.94141 20.621 10.82 20 19.738 41.602 26.5 64.18 2.1211 7.0781 7.9805 12.441 15.238 13.879l83.039 16.602c9.3398 1.8633 16.102 10.105 16.102 19.605z"/>
  <path d="m773.02 497.64c-10.02 4.6602-14.359 16.559-9.6992 26.578 11.078 23.781 16.68 49.301 16.68 75.781 0 99.262-80.738 180-180 180s-180-80.738-180-180 80.738-180 180-180c26.48 0 51.98 5.6016 75.801 16.68 10.02 4.6797 21.898 0.32031 26.559-9.7188 4.6406-10 0.30078-21.898-9.7188-26.559-29.121-13.543-60.301-20.402-92.641-20.402-121.3 0-220 98.699-220 220s98.699 220 220 220 220-98.699 220-220c0-32.359-6.8594-63.539-20.398-92.66-4.6602-10-16.5-14.301-26.582-9.6992z"/>
 </g>
</svg>
