<svg xmlns="http://www.w3.org/2000/svg" width="752pt" height="752pt" version="1.1" viewBox="150 150 452 452" fill="currentColor">
 <g>
  <path d="m404.42 489.66h-56.832c-5.2227 0-9.4727 4.2461-9.4727 9.4727v41.676c0 3.1367 2.5469 5.6836 5.6836 5.6836h64.406c3.1367 0 5.6836-2.5508 5.6836-5.6836v-41.676c0-5.2227-4.2461-9.4727-9.4688-9.4727zm0 47.359h-56.832v-37.887h56.828z"/>
  <path d="m537.02 537.02h-42.621v-251c0-13.055-10.621-23.68-23.68-23.68h-28.414v-18.941c0-5.2227-4.2461-9.4727-9.4727-9.4727h-14.207v-47.355c0-6.2617-9.4727-6.2656-9.4727 0v47.359h-28.414v-47.359c0-6.2617-9.4727-6.2656-9.4727 0v47.359l-52.094-0.003907c-5.2227 0-9.4727 4.2461-9.4727 9.4727v18.941h-28.414c-13.055 0-23.68 10.621-23.68 23.68v251h-42.621c-5.2227 0-9.4727 4.2461-9.4727 9.4727v9.4727c0 5.2227 4.2461 9.4727 9.4727 9.4727h322.04c5.2227 0 9.4727-4.2461 9.4727-9.4727v-9.4727c0-5.2227-4.25-9.4688-9.4727-9.4688zm-217.85-293.62h113.66v18.941l-113.66 0.003906zm217.85 312.56h-322.04v-9.4727h47.359c2.6172 0 4.7344-2.1211 4.7344-4.7344v-255.73c0-7.832 6.375-14.207 14.207-14.207h189.43c7.832 0 14.207 6.375 14.207 14.207v255.73c0 2.6133 2.1172 4.7344 4.7344 4.7344h47.359z"/>
  <path d="m456.51 290.76h-161.02c-5.2227 0-9.4727 4.2461-9.4727 9.4727v28.414c0 5.2227 4.2461 9.4727 9.4727 9.4727h161.02c5.2227 0 9.4727-4.2461 9.4727-9.4727v-28.414c0-5.2266-4.2461-9.4727-9.4688-9.4727zm0 37.887h-161.02v-28.414h161.02z"/>
  <path d="m456.51 423.29h-161.02c-5.2227 0-9.4727 4.2461-9.4727 9.4727v28.414c0 5.2227 4.2461 9.4727 9.4727 9.4727h161.02c5.2227 0 9.4727-4.2461 9.4727-9.4727v-28.414c0-5.2227-4.2461-9.4727-9.4688-9.4727zm0 37.887h-161.02v-28.414h161.02z"/>
  <path d="m456.51 357.06h-161.02c-5.2227 0-9.4727 4.2461-9.4727 9.4727v28.414c0 5.2227 4.2461 9.4727 9.4727 9.4727h161.02c5.2227 0 9.4727-4.2461 9.4727-9.4727v-28.414c0-5.2266-4.2461-9.4727-9.4688-9.4727zm0 37.887h-161.02v-28.414h161.02z"/>
 </g>
</svg>