<?xml version="1.0" encoding="UTF-8"?>
<svg width="1200pt" height="1200pt" version="1.1" viewBox="0 0 1200 1200" xmlns="http://www.w3.org/2000/svg">
 <g fill="currentColor">
  <path d="m996 592.92v-292.92c0-39.719-32.398-72-72-72h-48v-36c0-46.32-37.68-84-84-84s-84 37.68-84 84v36h-96v-36c0-46.32-37.68-84-84-84s-84 37.68-84 84v36h-96v-36c0-46.32-37.68-84-84-84s-84 37.68-84 84v36h-48c-39.719 0-72 32.281-72 72v576c0 39.719 32.281 72 72 72h508.92c43.797 85.32 132.72 144 235.08 144 145.56 0 264-118.44 264-264 0-102.36-58.68-191.28-144-235.08zm-240-400.92c0-19.922 16.078-36 36-36 19.801 0 36 16.078 36 36v36h-72zm-264 0c0-19.922 16.078-36 36-36 19.801 0 36 16.078 36 36v36h-72zm-264 0c0-19.922 16.078-36 36-36 19.801 0 36 16.078 36 36v36h-72zm-120 108c0-13.199 10.68-24 24-24h792c13.199 0 24 10.801 24 24v48h-840zm513.96 600h-489.96c-13.32 0-24-10.801-24-24v-480h840v178.08c-22.922-6.5977-47.039-10.078-72-10.078-145.56 0-264 118.44-264 264 0 24.961 3.4805 49.078 9.9609 72zm254.04 144c-119.16 0-216-96.961-216-216 0-119.16 96.84-216 216-216 119.04 0 216 96.84 216 216 0 119.04-96.961 216-216 216z"/>
  <path d="m972 804h-72v-96c0-13.32-10.801-24-24-24-13.32 0-24 10.68-24 24v120c0 13.199 10.68 24 24 24h96c13.199 0 24-10.801 24-24 0-13.32-10.801-24-24-24z"/>
 </g>
</svg>
