<?xml version="1.0" encoding="UTF-8"?>
<svg width="1200pt" height="1200pt" version="1.1" viewBox="50 50 1100 1100" xmlns="http://www.w3.org/2000/svg">
 <path d="m600 108.09c-171.53 0-312 127.05-312 312 0 67.938 28.117 155.75 57 209.62l244.5 456c2.1133 3.8203 6.1367 6.1914 10.5 6.1914s8.3867-2.3711 10.5-6.1914l244.5-456c28.883-53.879 57-141.69 57-209.62 0-184.95-140.47-312-312-312zm0 24c159.84 0 288 115.06 288 288 0 61.047-27.297 148.18-54 198l-234 436.5-234-436.5c-26.703-49.812-54-136.95-54-198 0-172.94 128.16-288 288-288zm0 144c-79.387 0-144 64.613-144 144 0 79.387 64.613 144 144 144s144-64.613 144-144c0-79.387-64.613-144-144-144zm0 24c66.418 0 120 53.586 120 120 0 66.418-53.582 120-120 120s-120-53.582-120-120c0-66.414 53.582-120 120-120z" fill="currentColor"/>
</svg>
