<svg width="700pt" height="700pt" version="1.1" viewBox="30 0 700 620" xmlns="http://www.w3.org/2000/svg" xmlns:xlink="http://www.w3.org/1999/xlink">
 <g transform="scale(1.1)" fill="currentColor">
  <path d="m474.12 0h-248.25c-11.098 0.0078125-21.738 4.418-29.586 12.27-7.8477 7.8477-12.262 18.488-12.27 29.586v476.29c0.007813 11.098 4.4219 21.738 12.27 29.586 7.8477 7.8516 18.488 12.262 29.586 12.27h248.25c11.098-0.007812 21.738-4.418 29.586-12.27 7.8477-7.8477 12.262-18.488 12.27-29.586v-476.29c-0.007813-11.098-4.4219-21.738-12.27-29.586-7.8477-7.8516-18.488-12.262-29.586-12.27zm-248.25 14.434h248.25c7.2695 0.007812 14.238 2.8984 19.383 8.0391 5.1406 5.1406 8.0312 12.113 8.0391 19.383v38.969h-303.09v-38.969c0.007813-7.2695 2.8984-14.242 8.0391-19.383 5.1445-5.1406 12.113-8.0312 19.383-8.0391zm275.67 427.21h-303.09v-346.39h303.09zm-27.422 103.92h-248.25c-7.2695-0.007812-14.238-2.8984-19.383-8.0391-5.1406-5.1406-8.0312-12.113-8.0391-19.383v-62.062h303.09v62.062c-0.007813 7.2695-2.8984 14.242-8.0391 19.383-5.1445 5.1406-12.113 8.0312-19.383 8.0391z"/>
  <path d="m318.25 41.855h63.504v17.32h-63.504z"/>
  <path d="m364.43 495.05c0 9.5664-7.7539 17.32-17.32 17.32-9.5664 0-17.32-7.7539-17.32-17.32 0-9.5664 7.7539-17.32 17.32-17.32 9.5664 0 17.32 7.7539 17.32 17.32"/>
 </g>
</svg>