<?xml version="1.0" encoding="UTF-8"?>
<svg width="1200pt" height="1200pt" version="1.1" viewBox="50 150 900 900" xmlns="http://www.w3.org/2000/svg">
 <g fill="currentColor">
  <path d="m780.75 986.25h-361.5c-27.152 0-53.191-10.785-72.391-29.984s-29.984-45.238-29.984-72.391v-361.5c0.097656-27.086 10.93-53.031 30.117-72.148 19.188-19.117 45.172-29.852 72.258-29.852h361.5c27.086 0 53.07 10.734 72.258 29.852 19.188 19.117 30.02 45.062 30.117 72.148v361.5c0 27.152-10.785 53.191-29.984 72.391s-45.238 29.984-72.391 29.984zm-361.5-528.38c-17.141 0-33.586 6.7852-45.742 18.867-12.156 12.086-19.035 28.492-19.133 45.633v361.5c0 17.207 6.8359 33.707 19 45.875 12.168 12.164 28.668 19 45.875 19h361.5c17.207 0 33.707-6.8359 45.875-19 12.164-12.168 19-28.668 19-45.875v-361.5c-0.097656-17.141-6.9766-33.547-19.133-45.633-12.156-12.082-28.602-18.867-45.742-18.867z"/>
  <path d="m791.62 457.88h-383.25c-4.9727 0-9.7422-1.9766-13.258-5.4922-3.5156-3.5156-5.4922-8.2852-5.4922-13.258v-15c0-55.793 22.164-109.3 61.617-148.76 39.453-39.453 92.965-61.617 148.76-61.617s109.3 22.164 148.76 61.617c39.453 39.453 61.617 92.965 61.617 148.76v15c0 4.9727-1.9766 9.7422-5.4922 13.258-3.5156 3.5156-8.2852 5.4922-13.258 5.4922zm-364.5-37.5h345.75c0-45.848-18.215-89.82-50.633-122.24-32.422-32.418-76.395-50.633-122.24-50.633s-89.82 18.215-122.24 50.633c-32.418 32.422-50.633 76.395-50.633 122.24z"/>
  <path d="m600 809.25c-4.9102 0-9.6211-1.9219-13.129-5.3594-3.5039-3.4336-5.5234-8.1094-5.6211-13.016v-87.375c0-5.0078 1.9609-9.8164 5.4688-13.391 3.5039-3.5781 8.2734-5.6367 13.281-5.7344 4.9727 0 9.7422 1.9766 13.258 5.4922 3.5156 3.5156 5.4922 8.2852 5.4922 13.258v87.375c0 4.9727-1.9766 9.7422-5.4922 13.258-3.5156 3.5156-8.2852 5.4922-13.258 5.4922z"/>
  <path d="m600 721.88c-18.398 0-36.047-7.3086-49.055-20.32-13.012-13.008-20.32-30.656-20.32-49.055s7.3086-36.047 20.32-49.055c13.008-13.012 30.656-20.32 49.055-20.32s36.047 7.3086 49.055 20.32c13.012 13.008 20.32 30.656 20.32 49.055s-7.3086 36.047-20.32 49.055c-13.008 13.012-30.656 20.32-49.055 20.32zm0-101.25c-8.4531 0-16.562 3.3594-22.539 9.3359-5.9766 5.9766-9.3359 14.086-9.3359 22.539s3.3594 16.562 9.3359 22.539c5.9766 5.9766 14.086 9.3359 22.539 9.3359s16.562-3.3594 22.539-9.3359c5.9766-5.9766 9.3359-14.086 9.3359-22.539s-3.3594-16.562-9.3359-22.539c-5.9766-5.9766-14.086-9.3359-22.539-9.3359z"/>
 </g>
</svg>
