<svg xmlns="http://www.w3.org/2000/svg" width="752pt" height="752pt" version="1.1" viewBox="0 0 752 752" fill="currentColor">
 <defs>
  <clipPath id="c">
   <path d="m553 346h59.793v60h-59.793z"/>
  </clipPath>
  <clipPath id="b">
   <path d="m139.21 163h24.789v25h-24.789z"/>
  </clipPath>
  <clipPath id="a">
   <path d="m139.21 564h24.789v25h-24.789z"/>
  </clipPath>
 </defs>
 <path d="m382.84 205.47c-7.6016 0-15.215-2.8984-21.016-8.7031-11.617-11.609-11.723-30.535-0.10547-42.148 11.609-11.609 30.328-11.711 41.93-0.10547l0.20703 0.20703c11.617 11.613 11.617 30.438 0 42.043-5.7969 5.8047-13.414 8.707-21.016 8.707z"/>
 <path d="m516.48 339.12c-7.5898 0-15.156-2.875-20.965-8.6445l-0.44531-0.44531c-11.645-11.574-11.707-30.395-0.12891-42.043 11.551-11.645 30.391-11.707 42.039-0.13281l0.46094 0.44141c11.641 11.574 11.699 30.395 0.12891 42.043-5.8047 5.8477-13.457 8.7812-21.09 8.7812zm-66.828-66.828c-7.5977 0-15.211-2.8984-21.016-8.7031l-0.44531-0.44141c-11.609-11.613-11.609-30.438 0-42.043 11.609-11.609 30.441-11.609 42.039 0l0.44922 0.44141c11.613 11.613 11.613 30.434 0 42.043-5.7969 5.8008-13.418 8.7031-21.027 8.7031z"/>
 <g clip-path="url(#c)">
  <path d="m582.9 405.76c-7.5977 0-15.195-2.8711-20.969-8.6484-8.5859-8.5859-10.883-21.047-6.8086-31.648 1.4336-3.875 3.7031-7.4961 6.8086-10.613 11.602-11.602 30.324-11.707 41.93-0.10547l0.22266 0.20703c11.609 11.613 11.609 30.438 0 42.055-5.8242 5.832-13.5 8.7539-21.184 8.7539z"/>
 </g>
 <path d="m449.22 539.55c-7.6055 0-15.227-2.8984-21.016-8.7031-11.617-11.609-11.617-30.441 0-42.051l0.44531-0.4375c11.598-11.617 30.441-11.617 42.039 0 11.609 11.609 11.609 30.434 0 42.039l-0.44531 0.44531c-5.8086 5.8086-13.43 8.707-21.023 8.707zm66.812-66.816c-7.5977 0-15.215-2.8945-21.016-8.6992-11.609-11.613-11.609-30.441 0-42.051l0.4375-0.44922c11.602-11.598 30.441-11.598 42.039 0 11.613 11.609 11.613 30.441 0 42.059l-0.4375 0.44141c-5.8008 5.7969-13.406 8.6992-21.023 8.6992z"/>
 <path d="m382.62 606.14c-7.5977 0-15.215-2.8945-21.016-8.7109-11.617-11.602-11.617-30.426 0-42.039 11.609-11.613 30.523-11.723 42.129-0.10547 11.625 11.617 11.73 30.336 0.10547 41.938l-0.20703 0.20703c-5.793 5.8008-13.406 8.7109-21.012 8.7109z"/>
 <path d="m288.69 199.53c-6.0859 0-12.176-2.3242-16.816-6.9648-9.2852-9.2852-9.3906-24.449-0.10547-33.742 9.2812-9.2773 24.242-9.3867 33.531-0.10547l0.20703 0.20703c9.293 9.2852 9.293 24.348 0 33.637-4.6406 4.6445-10.727 6.9688-16.816 6.9688z"/>
 <path d="m422.32 333.18c-6.0508 0-12.129-2.3047-16.754-6.9141l-0.46094-0.44922c-9.3242-9.2578-9.3711-24.309-0.097656-33.633 9.2578-9.3164 24.312-9.3711 33.633-0.10547l0.46094 0.44141c9.3203 9.2578 9.3672 24.312 0.10547 33.633-4.6719 4.6797-10.773 7.0273-16.887 7.0273zm-66.82-66.828c-6.0859 0-12.176-2.3203-16.816-6.9648l-0.44141-0.44141c-9.293-9.293-9.293-24.348 0-33.637 9.2773-9.2852 24.352-9.2852 33.633 0l0.44141 0.44141c9.2812 9.2852 9.2812 24.348 0 33.637-4.6367 4.6406-10.727 6.9648-16.816 6.9648z"/>
 <path d="m488.76 399.81c-6.0859 0-12.148-2.2891-16.77-6.9102-6.8711-6.8711-8.7031-16.855-5.4414-25.34 1.1406-3.1133 2.9648-6.0156 5.4414-8.5156 9.2969-9.2773 24.254-9.3828 33.531-0.10547l0.21484 0.20703c9.2852 9.2852 9.2852 24.352 0 33.645-4.6797 4.6797-10.84 7.0195-16.977 7.0195z"/>
 <path d="m355.07 533.61c-6.0625 0-12.125-2.3008-16.766-6.8984-9.3164-9.2734-9.3672-24.332-0.10938-33.645l0.44141-0.44922c9.2617-9.3164 24.32-9.3672 33.637-0.10547 9.3164 9.2578 9.3633 24.32 0.10937 33.645l-0.44141 0.44531c-4.6484 4.6758-10.758 7.0078-16.871 7.0078zm66.812-66.816c-6.0742 0-12.168-2.3164-16.816-6.957-9.293-9.3008-9.293-24.371 0-33.645l0.44531-0.44531c9.2852-9.2773 24.359-9.2773 33.637 0 9.293 9.293 9.293 24.355 0 33.645l-0.44922 0.45312c-4.6367 4.6328-10.73 6.9492-16.816 6.9492z"/>
 <path d="m288.48 600.2c-6.0859 0-12.176-2.3164-16.816-6.9648-9.293-9.293-9.293-24.352 0-33.637 9.2812-9.2852 24.449-9.3867 33.738-0.097656 9.2852 9.293 9.3945 24.238 0.10547 33.531l-0.21484 0.20312c-4.6406 4.6484-10.734 6.9648-16.812 6.9648z"/>
 <path d="m215.61 193.58c-4.5664 0-9.1289-1.7383-12.613-5.2227-6.9727-6.9609-7.0742-18.359-0.10547-25.324 6.9531-6.9609 18.148-7.0781 25.117-0.10547l0.20703 0.20703c6.9648 6.9609 6.9648 18.258 0 25.223-3.4766 3.4844-8.043 5.2227-12.605 5.2227z"/>
 <path d="m349.24 327.23c-4.5664 0-9.1289-1.7422-12.613-5.2266l-0.44141-0.44141c-6.9648-6.9648-6.9648-18.258 0-25.223 6.9648-6.9648 18.258-6.9648 25.223 0l0.44141 0.44141c6.9648 6.9648 6.9648 18.258 0 25.223-3.4805 3.4844-8.0469 5.2266-12.609 5.2266zm-66.824-66.82c-4.5664 0-9.125-1.7383-12.613-5.2227l-0.44141-0.44531c-6.9648-6.9609-6.9648-18.258 0-25.223 6.9648-6.9648 18.258-6.9648 25.223 0l0.44141 0.44531c6.9648 6.9609 6.9648 18.258 0 25.223-3.4805 3.4844-8.0469 5.2227-12.609 5.2227z"/>
 <path d="m415.67 393.86c-4.5547 0-9.0977-1.7109-12.555-5.1719-5.168-5.168-6.5625-12.664-4.0977-19.035 0.87109-2.3398 2.2266-4.5273 4.0977-6.4023 6.957-6.9609 18.156-7.0781 25.125-0.10547l0.20703 0.20703c6.9727 6.9609 6.9727 18.25 0 25.223-3.5117 3.5273-8.1445 5.2852-12.777 5.2852z"/>
 <path d="m281.98 527.66c-4.5469 0-9.0938-1.7227-12.57-5.1914-6.9883-6.9414-7.0273-18.234-0.082031-25.223l0.44141-0.44141c6.9414-6.9961 18.242-7.0234 25.223-0.09375 6.9883 6.9492 7.0234 18.246 0.082031 25.227l-0.44141 0.44922c-3.4805 3.5234-8.0664 5.2734-12.652 5.2734zm66.824-66.816c-4.5664 0-9.1289-1.7422-12.613-5.2266-6.9648-6.9648-6.9648-18.258 0-25.215l0.44141-0.45312c6.9648-6.9648 18.258-6.9648 25.223 0 6.9648 6.9648 6.9648 18.258 0 25.223l-0.44141 0.44531c-3.4805 3.4844-8.0469 5.2266-12.609 5.2266z"/>
 <path d="m215.39 594.25c-4.5664 0-9.1289-1.7344-12.613-5.2266-6.9727-6.9727-6.9727-18.25 0-25.219 6.957-6.9727 18.367-7.0703 25.328-0.10547 6.9648 6.9766 7.0703 18.152 0.10547 25.125l-0.20703 0.21484c-3.4844 3.4766-8.0508 5.2109-12.613 5.2109z"/>
 <g clip-path="url(#b)">
  <path d="m151.31 187.64c-3.0469 0-6.0859-1.1602-8.4062-3.4805-4.6484-4.6484-4.75-12.281-0.10547-16.922 4.6328-4.6406 12.066-4.7539 16.711-0.10547l0.20703 0.20313c4.6406 4.6367 4.6406 12.172 0 16.816-2.3242 2.3203-5.3672 3.4883-8.4062 3.4883z"/>
 </g>
 <path d="m284.95 321.28c-3.0312 0-6.0625-1.1445-8.3789-3.4531l-0.44922-0.44141c-4.6602-4.6328-4.6875-12.156-0.058594-16.816 4.6367-4.6562 12.172-4.6836 16.816-0.058594l0.44531 0.44531c4.6641 4.6328 4.6875 12.156 0.058593 16.816-2.3164 2.3438-5.3789 3.5078-8.4336 3.5078zm-66.816-66.816c-3.0469 0-6.0859-1.1602-8.4062-3.4844l-0.44531-0.44531c-4.6445-4.6406-4.6445-12.172 0-16.816 4.6445-4.6445 12.172-4.6445 16.816 0l0.44531 0.44531c4.6445 4.6406 4.6445 12.172 0 16.816-2.3281 2.3242-5.3711 3.4844-8.4102 3.4844z"/>
 <path d="m351.38 387.93c-3.0391 0-6.0625-1.1367-8.3555-3.4375-3.4727-3.4531-4.4062-8.4688-2.7344-12.719 0.5625-1.5781 1.4727-3.0508 2.7344-4.3047 4.6367-4.6406 12.07-4.7539 16.707-0.10547l0.20703 0.20703c4.6406 4.6367 4.6406 12.176 0 16.816-2.3398 2.3594-5.4492 3.543-8.5586 3.543z"/>
 <path d="m217.69 521.72c-3.0469 0-6.082-1.1641-8.4062-3.4805-4.6445-4.6367-4.6445-12.168 0-16.82l0.44531-0.44531c4.6445-4.6367 12.168-4.6367 16.816 0 4.6445 4.6406 4.6445 12.18 0 16.816l-0.44531 0.44922c-2.3281 2.3086-5.3711 3.4805-8.4102 3.4805zm66.824-66.816c-3.0469 0-6.0859-1.1641-8.4062-3.4844-4.6445-4.6367-4.6445-12.176 0-16.816l0.44141-0.44922c4.6406-4.6406 12.172-4.6406 16.816 0 4.6406 4.6406 4.6406 12.18 0 16.816l-0.44141 0.44922c-2.3242 2.3164-5.3711 3.4844-8.4102 3.4844z"/>
 <g clip-path="url(#a)">
  <path d="m151.1 588.3c-3.0469 0-6.0859-1.1562-8.4062-3.4766-4.6445-4.6367-4.6445-12.168 0-16.816 4.6367-4.6367 12.281-4.75 16.922-0.10547 4.6406 4.6445 4.7461 12.07 0.10547 16.711l-0.20703 0.20703c-2.332 2.3242-5.3711 3.4805-8.4141 3.4805z"/>
 </g>
</svg>