<?xml version="1.0" encoding="UTF-8"?>
<svg width="1200pt" height="1200pt" version="1.1" viewBox="0 0 1200 1200" xmlns="http://www.w3.org/2000/svg">
 <g fill="currentColor" stroke="currentColor">
  <path  stroke-width="40" d="m590.5 34.5c-112.11 2.1758-219.98 43.254-305.14 116.2-85.164 72.941-142.32 173.22-161.7 283.66-19.375 110.45 0.23828 224.19 55.48 321.77 55.246 97.574 142.69 172.92 247.36 213.13 6.1992 2.4453 13.113 2.3164 19.219-0.35938 6.1016-2.6758 10.883-7.6758 13.281-13.891 2.3555-6.1992 2.1484-13.082-0.57031-19.129s-7.7305-10.77-13.93-13.121c-96.48-37.031-176.56-107.31-225.8-198.17-49.238-90.855-64.398-196.32-42.75-297.36 21.652-101.05 78.688-191.04 160.83-253.75 82.145-62.707 183.98-94.012 287.17-88.262 103.18 5.75 200.91 48.168 275.58 119.61 74.668 71.445 121.36 167.21 131.65 270.04 10.289 102.83-16.492 205.95-75.52 290.78-59.023 84.828-146.41 145.78-246.41 171.86-6.3906 1.7031-11.848 5.8672-15.176 11.582-3.3242 5.7188-4.2539 12.52-2.5742 18.918 1.4648 5.4531 4.7344 10.25 9.2734 13.609 4.5391 3.3594 10.082 5.082 15.727 4.8906 2.1523 0.36719 4.3477 0.36719 6.5 0 113.39-30.871 211.66-101.98 276.43-200.05 64.77-98.062 91.609-216.36 75.492-332.77-16.113-116.41-74.074-222.97-163.05-299.75-88.973-76.777-202.86-118.53-320.38-117.43z"/>
  <path  stroke-width="40" d="m745.75 645.75c4.6562-4.6836 7.2695-11.02 7.2695-17.625s-2.6133-12.941-7.2695-17.625l-145.75-146.25c-2.1289-2.168-4.6836-3.8672-7.5-5h-2.25c-2.0273-0.65625-4.125-1.0742-6.25-1.25h-2.5c-2.7344 0.015625-5.4453 0.52344-8 1.5-2.6602 1.2852-5.1055 2.9727-7.25 5l-146.25 146.25c-4.7266 4.6875-7.3906 11.07-7.3945 17.73-0.007813 6.6602 2.6445 13.043 7.3672 17.742 4.7188 4.6953 11.117 7.3164 17.777 7.2773 6.6797-0.027344 13.074-2.7305 17.75-7.5l103.5-103.5v598c0 8.9297 4.7656 17.184 12.5 21.652 7.7344 4.4648 17.266 4.4648 25 0 7.7344-4.4688 12.5-12.723 12.5-21.652v-598.25l103.5 103.5c4.5781 4.0781 10.496 6.3281 16.625 6.3281s12.047-2.25 16.625-6.3281z"/>
 </g>
</svg>
