<?xml version="1.0" encoding="UTF-8"?>
<svg width="1200pt" height="1200pt" version="1.1" viewBox="-100 -100 1400 1400" xmlns="http://www.w3.org/2000/svg">
 <g fill="currentColor">
  <path d="m967.24 18.75h-622.63c-92.418 0-167.61 75.188-167.61 167.61v36.918h-42.094c-38.512 0-69.844 31.332-69.844 69.863 0 38.551 31.332 69.918 69.844 69.918h42.094v167.02l-42.094 0.003906c-38.512 0-69.844 31.367-69.844 69.918 0 38.512 31.332 69.844 69.844 69.844h42.094v167.12h-42.094c-38.512 0-69.844 31.332-69.844 69.863 0 38.551 31.332 69.918 69.844 69.918h42.094v36.863c0 92.457 75.188 167.66 167.59 167.66h622.63c92.477 0 167.68-75.227 167.68-167.66v-827.25c0.019531-92.418-75.188-167.61-167.66-167.61zm-864.66 274.39c0-17.852 14.492-32.363 32.344-32.363h121.55c17.812 0 32.324 14.512 32.324 32.363 0 17.867-14.492 32.418-32.324 32.418h-121.57c-17.832-0.015626-32.324-14.547-32.324-32.418zm0 306.86c0-17.887 14.492-32.418 32.344-32.418h121.55c17.812 0 32.324 14.551 32.324 32.418 0 17.832-14.492 32.344-32.324 32.344h-121.57c-17.832 0-32.324-14.512-32.324-32.344zm0 306.8c0-17.832 14.492-32.363 32.344-32.363h121.55c17.812 0 32.324 14.512 32.324 32.363 0 17.867-14.492 32.418-32.324 32.418l-121.57 0.003906c-17.832 0-32.324-14.551-32.324-32.422zm994.84 106.78c0 71.773-58.406 130.16-130.18 130.16h-622.63c-71.738 0-130.09-58.387-130.09-130.16v-36.863h41.961c38.492 0 69.824-31.367 69.824-69.918 0-38.531-31.332-69.863-69.824-69.863l-41.98 0.003906v-167.12h41.961c38.492 0 69.824-31.332 69.824-69.844 0-38.57-31.332-69.918-69.824-69.918l-41.961-0.003906v-167.02h41.961c38.492 0 69.824-31.352 69.824-69.918 0-38.512-31.332-69.863-69.824-69.863h-41.961v-36.902c0-71.738 58.367-130.11 130.11-130.11h622.63c71.773 0 130.18 58.367 130.18 130.11z"/>
  <path d="m681.47 580.82c-149.51 0-271.12 121.63-271.12 271.11v167.36c0 10.367 8.3828 18.75 18.75 18.75h504.73c10.367 0 18.75-8.3828 18.75-18.75v-167.36c0-149.48-121.63-271.11-271.11-271.11zm233.61 419.72h-467.23v-148.61c0-128.81 104.81-233.61 233.62-233.61s233.61 104.79 233.61 233.61z"/>
  <path d="m681.47 545.12c84.824 0 153.86-69.02 153.86-153.86v-29.137c0-84.789-69.039-153.79-153.86-153.79-84.789 0-153.77 68.98-153.77 153.79v29.137c0 84.848 68.965 153.86 153.77 153.86zm-116.27-182.98c0-64.105 52.164-116.29 116.27-116.29 64.164 0 116.36 52.164 116.36 116.29v29.137c0 64.164-52.199 116.36-116.36 116.36-64.105 0-116.27-52.199-116.27-116.36z"/>
 </g>
</svg>
