<svg xmlns="http://www.w3.org/2000/svg" width="752pt" height="752pt" version="1.1" viewBox="175 175 400 400" fill="currentColor">
 <path d="m453.05 365.35-133.2-133c-3.7773-3.5195-9.1172-4.8164-14.086-3.4219-4.9727 1.3945-8.8555 5.2812-10.254 10.25-1.3945 4.9727-0.097656 10.312 3.4219 14.09l122.74 122.73-122.74 122.74c-2.793 2.7617-4.3672 6.5273-4.3672 10.457 0 3.9297 1.5742 7.6953 4.3672 10.461 2.7773 2.7695 6.5391 4.3281 10.461 4.3281s7.6836-1.5586 10.457-4.3281l133.2-133.79c2.6758-2.7461 4.1719-6.4258 4.1719-10.262 0-3.832-1.4961-7.5156-4.1719-10.258z"/>
</svg>