<?xml version="1.0" encoding="UTF-8"?>
<svg width="1200pt" height="1200pt" version="1.1" viewBox="0 0 1200 1200" xmlns="http://www.w3.org/2000/svg">
 <path d="m986.62 901.05c0 16.727-13.551 30.273-30.273 30.273-16.738 0-30.273-13.539-30.273-30.273 0-16.738 13.539-30.273 30.273-30.273 16.723-0.015625 30.273 13.535 30.273 30.273zm-639.23 0c0 16.727-13.551 30.273-30.273 30.273-16.738 0-30.273-13.539-30.273-30.273 0-16.738 13.539-30.273 30.273-30.273 16.738-0.015625 30.273 13.535 30.273 30.273zm500.38-324.44v-137.86h140.57l58.539 137.86zm240.81 27.574c3.2891-4.9766 3.8633-11.262 1.5234-16.762l-73.637-173.4c-2.7891-6.5625-9.2266-10.824-16.363-10.824l-170.11-0.003906c-9.8125 0-17.773 7.9609-17.773 17.773v173.4c0 9.8242 7.9492 17.773 17.773 17.773h243.76c5.9648 0.015624 11.539-2.9844 14.824-7.9609zm44.613 140.3v59.699h-36.199v-59.699zm-15.551 138.79c8.5742 0 15.551-6.9766 15.551-15.551v-27.988h-38.613c-18.262 0-33.125-14.863-33.125-33.125v-64.523c0-18.262 14.863-33.125 33.125-33.125h38.613v-97.977c0-4.1758-0.67578-7.4883-2.3516-11.414l-88.125-207.51c-5.6641-13.324-19.262-21.586-35.488-21.586l-227.76 0.003906v512.81h71.738c8.4883-50.363 52.387-88.875 105.12-88.875 52.738 0 96.637 38.512 105.14 88.875h56.172zm-161.31 88.863c39.199 0 71.102-31.898 71.102-71.102 0-39.211-31.898-71.102-71.102-71.102-39.199 0-71.102 31.887-71.102 71.102 0.015625 39.215 31.902 71.102 71.102 71.102zm-639.21-177.74c52.738 0 96.637 38.512 105.14 88.875h321.66v-324.45h-677.12v297.79c0 14.688 11.961 26.648 26.664 26.648h118.52c8.5-50.363 52.387-88.863 105.14-88.863zm0 177.74c39.199 0 71.086-31.898 71.086-71.102 0-39.211-31.887-71.102-71.086-71.102s-71.086 31.887-71.086 71.102 31.887 71.102 71.086 71.102zm-223.66-744.27h623.8c14.699 0 26.648 11.961 26.648 26.648v172.11h-677.11v-172.1c0-14.699 11.961-26.66 26.66-26.66zm650.46 295.43h-677.12v-61.102h677.12zm419.66 62.387-88.137-207.52c-11.324-26.676-37.461-43.25-68.199-43.25l-227.77-0.003906v-80.387c0-34.301-27.898-62.211-62.199-62.211h-623.82c-34.301 0-62.211 27.914-62.211 62.211v602.1c0 34.289 27.898 62.199 62.211 62.199h118.52c8.4883 50.375 52.387 88.875 105.14 88.875 52.738 0 96.637-38.5 105.14-88.875h428.95c8.4883 50.363 52.375 88.875 105.12 88.875s96.637-38.512 105.14-88.875h56.176c28.188 0 51.102-22.926 51.102-51.102l0.003906-256.73c0-8.9531-1.6367-16.977-5.1641-25.301z" fill="currentColor" fill-rule="evenodd"/>
</svg>
