<?xml version="1.0" encoding="UTF-8"?>
<svg width="1200pt" height="1200pt" version="1.1" viewBox="0 0 1200 1200" xmlns="http://www.w3.org/2000/svg">
 <path d="m596.96 71.938c-2.0586 0.24219-4.0742 0.74609-6 1.5-115.17 46.129-239.02 92.375-447.71 99.004l-0.003906 0.003906c-6.2305 0.19531-12.145 2.8086-16.484 7.2891-4.3398 4.4805-6.7656 10.473-6.7617 16.711-0.10156 39.918 0 265.76 0 302.64 0.003906 202.07 61.258 344.64 151.86 443.28s209.16 152.94 321.72 184.51l0.003906 0.003906c4.1719 1.1484 8.5742 1.1484 12.746 0 112.56-31.574 231.12-85.871 321.72-184.51 90.602-98.641 151.86-241.2 151.86-443.28 0-36.887 0.10156-262.73 0-302.64l0.003906-0.003907c0.003906-6.2383-2.4219-12.23-6.7617-16.711-4.3398-4.4805-10.254-7.0938-16.484-7.2891-208.7-6.6289-332.54-52.879-447.71-99.004l-0.003906-0.003906c-3.8047-1.5156-7.9375-2.0312-11.996-1.5zm3 49.504c109.34 43.57 236.5 87.66 431.96 97.129 0.066406 59.668 0 246.21 0 280.52-0.003907 192.5-56.699 321.3-139.11 411.02-80.766 87.93-187.7 138.09-292.85 168.38-105.14-30.293-212.08-80.457-292.85-168.38-82.41-89.723-139.11-218.53-139.11-411.02 0-34.305-0.066406-220.85 0-280.52 195.46-9.4688 322.61-53.559 431.96-97.129zm226.48 286.14h-0.003906c-6.1914 0.44141-11.969 3.2656-16.125 7.875l-293.6 316.14-126.36-147.38h0.003906c-4.1289-4.8789-10.023-7.9141-16.387-8.4453-6.3672-0.52734-12.684 1.4961-17.555 5.625-4.875 4.1289-7.9102 10.023-8.4375 16.391-0.52344 6.3672 1.5 12.684 5.6289 17.555l143.99 168.01v0.003907c4.4492 5.2578 10.941 8.3555 17.832 8.4961 6.8867 0.14453 13.504-2.6797 18.164-7.7539l311.97-336.02c4.4805-4.707 6.8633-11.031 6.6016-17.527-0.26172-6.4922-3.1484-12.605-7.9961-16.934-4.8516-4.3281-11.246-6.5078-17.73-6.0352z" fill="currentColor"/>
</svg>
