<?xml version="1.0" encoding="UTF-8"?>
<svg width="1200pt" height="1200pt" version="1.1" viewBox="0 0 1200 1200" xmlns="http://www.w3.org/2000/svg">
 <g fill="currentColor">
  <path d="m600 164.45c-164.8 0-298.88 134.07-298.88 298.88 0 164.79 134.07 298.89 298.88 298.89s298.89-134.09 298.89-298.89c0-164.82-134.08-298.88-298.89-298.88zm0 574.98c-152.23 0-276.1-123.87-276.1-276.11 0-152.25 123.88-276.1 276.1-276.1 152.26 0 276.12 123.85 276.12 276.1s-123.86 276.11-276.12 276.11z"/>
  <path d="m1018.5 1024.2c0-85.328-99.727-213.93-260.8-272.91l-4.9141-1.8047-4.5586 2.5508c-45.156 25.277-96.402 38.641-148.21 38.641-51.789 0-103.04-13.363-148.21-38.641l-4.5586-2.5625-4.9141 1.8047c-161.12 58.977-260.8 187.58-260.8 272.92v11.383h836.99l0.003907-11.383zm-813.55-11.391c8.7148-76.938 102.9-186.32 240.37-238.36 47.406 25.516 100.79 38.98 154.69 38.98 53.926 0 107.28-13.453 154.69-38.98 137.47 52.055 231.65 161.41 240.37 238.36z"/>
 </g>
</svg>
