<?xml version="1.0" encoding="UTF-8"?>
<svg width="1200pt" height="1200pt" version="1.1" viewBox="0 0 1200 1200" xmlns="http://www.w3.org/2000/svg">
 <path d="m600 72c-82.891 0-164.16 23.695-228.75 63.375-10.703 6.6758-14.367 22.488-7.6914 33.191 6.6758 10.703 22.488 14.363 33.191 7.6836 56.531-34.73 129.68-56.25 203.25-56.25 200.59 0 360 151.25 360 336v72c-0.17969 12.68 11.32 24.344 24 24.344s24.18-11.664 24-24.344v-72c0-212.36-183.12-384-408-384zm-315 143.62c-6.1484 0.8125-11.93 4.1172-15.75 9-52.703 64.777-77.25 145.17-77.25 231.38v408c0 12.68 12.605 24.344 24 24.344s24-11.66 24-24.344v-408c0-77.168 21.578-145.48 66.75-201 6.3281-7.3711 7.4961-18.738 2.7969-27.242-4.6953-8.5-14.938-13.566-24.547-12.133zm315 0.375c-153.96 0-288 116.86-288 264v72c-0.17969 12.68 11.32 24.344 24 24.344s24.18-11.664 24-24.344v-72c0-117.6 110.32-216 240-216 129.68 0 240 98.398 240 216v504c-0.17969 12.68 11.32 24.344 24 24.344s24.18-11.664 24-24.344v-504c0-147.14-134.03-264-288-264zm0 144c-83.055 0-156 63.047-156 144v576c-0.17969 12.68 11.32 24.344 24 24.344s24.18-11.664 24-24.344v-576c0-51.414 49.23-96 108-96s108 44.586 108 96v156c-0.17969 12.68 11.32 24.344 24 24.344s24.18-11.664 24-24.344v-156c0-80.953-72.945-144-156-144zm0 132c-11.312 0-24 12.137-24 24v336c-0.17969 12.68 11.32 24.344 24 24.344s24.18-11.664 24-24.344v-336c0-13.617-12.688-24-24-24zm381.38 131.62c-11.793 1.2969-21.629 12.516-21.375 24.375v216c0 12.68 12.688 24 24 24s24-11.32 24-24v-216c0.29297-13.613-13.09-25.867-26.625-24.375zm-645.38 24.375c-11.312 0-24 12.137-24 24v312c-0.17969 12.68 11.32 24.344 24 24.344s24.18-11.664 24-24.344v-312c0-13.617-12.688-24-24-24zm396 108c-11.312 0-24 12.137-24 24v300c-0.17969 12.68 11.32 24.344 24 24.344s24.18-11.664 24-24.344v-300c0-13.617-12.688-24-24-24zm-132 204c-11.312 0-24 12.137-24 24v120c0 12.68 12.688 24 24 24s24-11.32 24-24v-120c0-13.617-12.688-24-24-24z" fill="currentColor"/>
</svg>
