<?xml version="1.0" encoding="UTF-8"?>
<svg width="1200pt" height="1200pt" version="1.1" viewBox="-100 -100 1400 1400" xmlns="http://www.w3.org/2000/svg">
 <path d="m1200 703.76c-2.3438 23.438-3.8203 46.875-7.2188 70.102-18.75 128.65-73.641 239.65-163.85 333.23-1.1719 1.082-2.4102 2.0898-3.7031 3.0234-63.727-192.07-195.26-300.54-398.58-325.36 77.766-11.391 138.73-47.578 180.28-112.69 41.906-65.625 50.25-136.62 26.086-210.4-36.844-112.5-146.18-179.88-266.51-165.75-109.78 12.891-201.56 109.55-211.62 219.45-12.07 131.53 83.086 255.3 216.3 269.65-200.67 24.117-332.13 132.59-396.68 325.64-6.5391-6.8906-13.477-13.734-19.922-21.094-94.43-106.92-145.97-231.42-152.81-374.18-0.38281-3.9336-0.97656-7.8477-1.7812-11.719v-28.664c0.80859-3.8711 1.4062-7.7812 1.7812-11.719 5.3906-120.82 43.219-230.65 115.29-327.59 100.24-134.86 234.23-214.8 400.78-239.41 22.477-3.3281 45.211-4.6875 67.852-7.0312h28.805c3.4766 0.79688 7 1.3789 10.547 1.7344 110.95 4.6875 213.28 36.844 305.18 98.953 148.44 100.34 236.08 239.41 262.92 417.19 3.375 22.406 4.6875 45.141 7.0312 67.711v28.805z" fill="currentColor"/>
</svg>
