<?xml version="1.0" encoding="UTF-8"?>
<svg width="1600" height="736" version="1.1" viewBox="0 350 1200 500" xmlns="http://www.w3.org/2000/svg">
 <path d="m61.223 422.45h12.246v12.246h-12.246zm0 24.488h12.246v12.246h-12.246zm24.492-24.488h12.246v12.246h-12.246zm0 24.488h12.246v12.246h-12.246zm0 24.492h12.246v12.242h-12.246zm24.488-48.98h12.246v12.246h-12.246zm0 24.488h12.246v12.246h-12.246zm24.492-24.488h12.242v12.246h-12.242zm0 24.488h12.242v12.246h-12.242zm-24.492 24.492h12.246v12.242h-12.246zm48.98-48.98h12.246v12.246h-12.246zm0 24.488h12.246v12.246h-12.246zm0 24.492h12.246v12.242h-12.246zm24.488-48.98h12.246v12.246h-12.246zm0 24.488h12.246v12.246h-12.246zm0 24.492h12.246v12.242h-12.246zm0 24.488h12.246v12.246h-12.246zm0 24.488h12.246v12.246h-12.246zm24.492-146.94h12.242v12.246h-12.242zm0 24.492h12.242v12.242h-12.242zm0 24.488h12.242v12.246h-12.242zm0 24.488h12.242v12.246h-12.242zm0 24.492h12.242v12.242h-12.242zm0 24.488h12.242v12.246h-12.242zm0 24.488h12.242v12.246h-12.242zm0 24.492h12.242v12.246h-12.242zm0 24.488h12.242v12.246h-12.242zm24.488-195.92h12.246v12.246h-12.246zm24.492-24.488h12.242v12.242h-12.242zm-24.492 48.98h12.246v12.242h-12.246zm0 24.488h12.246v12.246h-12.246zm0 24.488h12.246v12.246h-12.246zm0 24.492h12.246v12.242h-12.246zm0 24.488h12.246v12.246h-12.246zm0 24.488h12.246v12.246h-12.246zm0 24.492h12.246v12.246h-12.246zm0 24.488h12.246v12.246h-12.246zm0 24.492h12.246v12.242h-12.246zm24.492-195.92h12.242v12.242h-12.242zm0 24.488h12.242v12.246h-12.242zm0 24.488h12.242v12.246h-12.242zm0 24.492h12.242v12.242h-12.242zm0 24.488h12.242v12.246h-12.242zm0 24.488h12.242v12.246h-12.242zm0 24.492h12.242v12.246h-12.242zm0 24.488h12.242v12.246h-12.242zm0 24.492h12.242v12.242h-12.242zm0 24.488h12.242v12.246h-12.242zm24.488-269.39h12.246v12.242h-12.246zm0 24.488h12.246v12.246h-12.246zm0 24.492h12.246v12.242h-12.246zm24.488 0h12.246v12.242h-12.246zm24.492 0h12.242v12.242h-12.242zm-48.98 24.488h12.246v12.246h-12.246zm0 73.469h12.246v12.246h-12.246zm0 24.488h12.246v12.246h-12.246zm0 24.492h12.246v12.246h-12.246zm0 24.488h12.246v12.246h-12.246zm24.488-73.469h12.246v12.246h-12.246zm0 24.488h12.246v12.246h-12.246zm0 24.492h12.246v12.246h-12.246zm0 24.488h12.246v12.246h-12.246zm0 73.469h12.246v12.246h-12.246zm24.492 0h12.242v12.246h-12.242zm24.488 0h12.246v12.246h-12.246zm24.492 0h12.242v12.246h-12.242zm-48.98 24.492h12.242v12.246h-12.242zm24.488 0h12.246v12.246h-12.246zm24.492 0h12.242v12.246h-12.242zm24.488 0h12.246v12.246h-12.246zm-73.469 24.488h12.242v12.246h-12.242zm24.488 0h12.246v12.246h-12.246zm24.492 0h12.242v12.246h-12.242zm24.488 0h12.246v12.246h-12.246zm24.488 0h12.246v12.246h-12.246zm-97.957 24.492h12.242v12.242h-12.242zm24.488 0h12.246v12.242h-12.246zm24.492 0h12.242v12.242h-12.242zm24.488 0h12.246v12.242h-12.246zm-48.98 24.488h12.246v12.246h-12.246zm24.492 0h12.242v12.246h-12.242zm24.488 0h12.246v12.246h-12.246zm-48.98 24.488h12.246v12.246h-12.246zm24.492 0h12.242v12.246h-12.242zm-24.492 24.492h12.246v12.242h-12.246zm0 24.488h12.246v12.246h-12.246zm0 24.492h12.246v12.242h-12.246zm24.492 24.488h12.242v12.246h-12.242zm0-73.469h12.242v12.242h-12.242zm24.488-24.492h12.246v12.246h-12.246zm24.488-48.977h12.246v12.242h-12.246zm-97.957-244.9h12.242v12.242h-12.242zm0 24.488h12.242v12.246h-12.242zm0-73.469h12.242v12.246h-12.242zm0 24.488h12.242v12.246h-12.242zm0 73.469h12.242v12.246h-12.242zm24.488-48.977h12.246v12.242h-12.246zm0 24.488h12.246v12.246h-12.246zm0-73.469h12.246v12.246h-12.246zm0 24.488h12.246v12.246h-12.246zm0 73.469h12.246v12.246h-12.246zm24.492-24.488h12.242v12.246h-12.242zm0 24.488h12.242v12.246h-12.242zm-48.98 24.492h12.242v12.246h-12.242zm-48.98 73.469h12.246v12.246h-12.246zm24.488-293.88h12.246v12.246h-12.246zm0 24.492h12.246v12.242h-12.246zm24.492-24.492h12.242v12.246h-12.242zm0 24.492h12.242v12.242h-12.242zm24.488 0h12.246v12.242h-12.246zm24.492 0h12.242v12.242h-12.242zm0 24.488h12.242v12.246h-12.242zm24.488-24.488h12.246v12.242h-12.246zm24.488 0h12.246v12.242h-12.246zm24.492 0h12.242v12.242h-12.242zm24.488 0h12.246v12.242h-12.246zm24.488 0h12.246v12.242h-12.246zm110.21 0h12.242v12.242h-12.242zm24.488 0h12.246v12.242h-12.246zm-232.65 24.488h12.246v12.246h-12.246zm24.488 0h12.246v12.246h-12.246zm24.492 0h12.242v12.246h-12.242zm24.488 0h12.246v12.246h-12.246zm-73.469 24.492h12.246v12.242h-12.246zm24.488 0h12.246v12.242h-12.246zm-24.488 24.488h12.246v12.246h-12.246zm24.488 0h12.246v12.246h-12.246zm0 24.488h12.246v12.246h-12.246zm24.492-48.977h12.242v12.242h-12.242zm24.488 0h12.246v12.242h-12.246zm24.488-24.492h12.246v12.246h-12.246zm36.738 122.45h12.242v12.246h-12.242zm0 97.961h12.242v12.242h-12.242zm0 24.488h12.242v12.246h-12.242zm0 24.488h12.242v12.246h-12.242zm24.488-48.977h12.246v12.242h-12.246zm0 24.488h12.246v12.246h-12.246zm0 24.488h12.246v12.246h-12.246zm24.488-48.977h12.246v12.242h-12.246zm0 24.488h12.246v12.246h-12.246zm0 24.488h12.246v12.246h-12.246zm24.492-48.977h12.242v12.242h-12.242zm-48.98-24.492h12.246v12.246h-12.246zm24.488 0h12.246v12.246h-12.246zm0-48.98h12.246v12.246h-12.246zm0-24.488h12.246v12.246h-12.246zm24.492 73.469h12.242v12.246h-12.242zm0 48.98h12.242v12.246h-12.242zm0 24.488h12.242v12.246h-12.242zm0 48.98h12.242v12.246h-12.242zm0-24.488h12.242v12.246h-12.242zm0 48.98h12.242v12.242h-12.242zm24.488-122.45h12.246v12.242h-12.246zm0-24.492h12.246v12.246h-12.246zm0 48.98h12.246v12.246h-12.246zm0 24.488h12.246v12.246h-12.246zm0 48.98h12.246v12.246h-12.246zm0-24.488h12.246v12.246h-12.246zm0 48.98h12.246v12.242h-12.246zm24.488-122.45h12.246v12.242h-12.246zm0 24.488h12.246v12.246h-12.246zm0 24.488h12.246v12.246h-12.246zm0 48.98h12.246v12.246h-12.246zm0-24.488h12.246v12.246h-12.246zm24.492-24.492h12.246v12.246h-12.246zm24.488 0h12.246v12.246h-12.246zm-24.488 48.98h12.246v12.246h-12.246zm0-24.488h12.246v12.246h-12.246zm-24.492 48.98h12.246v12.242h-12.246zm48.98 24.488h12.246v12.246h-12.246zm0 24.488h12.246v12.246h-12.246zm-73.469-24.488h12.246v12.246h-12.246zm0 24.488h12.246v12.246h-12.246zm-24.488-342.86h12.242v12.246h-12.242zm0 24.488h12.242v12.246h-12.242zm0 48.98h12.242v12.246h-12.242zm0-24.488h12.242v12.242h-12.242zm0 48.977h12.242v12.246h-12.242zm24.488-97.957h12.246v12.246h-12.246zm0 24.488h12.246v12.246h-12.246zm0 48.98h12.246v12.246h-12.246zm0-24.488h12.246v12.242h-12.246zm24.488-48.98h12.246v12.246h-12.246zm0 24.488h12.246v12.246h-12.246zm0 48.98h12.246v12.246h-12.246zm0-24.488h12.246v12.242h-12.246zm24.492-48.98h12.246v12.246h-12.246zm0 24.488h12.246v12.246h-12.246zm0 48.98h12.246v12.246h-12.246zm24.488 24.488h12.246v12.246h-12.246zm-24.488-48.977h12.246v12.242h-12.246zm24.488-48.98h12.246v12.246h-12.246zm0 24.488h12.246v12.246h-12.246zm0 48.98h12.246v12.246h-12.246zm0-24.488h12.246v12.242h-12.246zm24.492-48.98h12.242v12.246h-12.242zm0 24.488h12.242v12.246h-12.242zm0 48.98h12.242v12.246h-12.242zm0-24.488h12.242v12.242h-12.242zm24.488-48.98h12.246v12.246h-12.246zm0 24.488h12.246v12.246h-12.246zm0 48.98h12.246v12.246h-12.246zm0-24.488h12.246v12.242h-12.246zm24.488-48.98h12.246v12.246h-12.246zm0 24.488h12.246v12.246h-12.246zm0 48.98h12.246v12.246h-12.246zm0-24.488h12.246v12.242h-12.246zm24.492-48.98h12.242v12.246h-12.242zm0 24.488h12.242v12.246h-12.242zm0 48.98h12.242v12.246h-12.242zm0-24.488h12.242v12.242h-12.242zm24.488-48.98h12.246v12.246h-12.246zm0 24.488h12.246v12.246h-12.246zm0 48.98h12.246v12.246h-12.246zm0-24.488h12.246v12.242h-12.246zm24.492-48.98h12.242v12.246h-12.242zm0 24.488h12.242v12.246h-12.242zm0 48.98h12.242v12.246h-12.242zm0-24.488h12.242v12.242h-12.242zm24.488-48.98h12.246v12.246h-12.246zm0 24.488h12.246v12.246h-12.246zm0 48.98h12.246v12.246h-12.246zm0-24.488h12.246v12.242h-12.246zm24.488-48.98h12.246v12.246h-12.246zm0 24.488h12.246v12.246h-12.246zm0 48.98h12.246v12.246h-12.246zm-220.41 73.469h12.246v12.246h-12.246zm24.488 0h12.246v12.246h-12.246zm24.492 0h12.242v12.246h-12.242zm24.488 0h12.246v12.246h-12.246zm24.488 0h12.246v12.246h-12.246zm24.492 0h12.242v12.246h-12.242zm24.488 0h12.246v12.246h-12.246zm24.492 0h12.242v12.246h-12.242zm24.488 0h12.246v12.246h-12.246zm24.488 0h12.246v12.246h-12.246zm-195.92 24.492h12.246v12.242h-12.246zm24.492 0h12.242v12.242h-12.242zm24.488 0h12.246v12.242h-12.246zm24.488 0h12.246v12.242h-12.246zm24.492 0h12.242v12.242h-12.242zm0 24.488h12.242v12.246h-12.242zm0 24.488h12.242v12.246h-12.242zm24.488-48.977h12.246v12.242h-12.246zm24.492 0h12.242v12.242h-12.242zm24.488 0h12.246v12.242h-12.246zm-24.488 24.488h12.242v12.246h-12.242zm24.488 0h12.246v12.246h-12.246zm0 24.488h12.246v12.246h-12.246zm0 24.492h12.246v12.246h-12.246zm24.488 0h12.246v12.246h-12.246zm24.492 0h12.242v12.246h-12.242zm-24.492 24.488h12.246v12.246h-12.246zm24.492 0h12.242v12.246h-12.242zm61.223 0h12.246v12.246h-12.246zm24.492 0h12.242v12.246h-12.242zm-110.21-97.957h12.246v12.242h-12.246zm0-122.45h12.246v12.242h-12.246zm24.492-48.98h12.242v12.246h-12.242zm0 24.488h12.242v12.246h-12.242zm0 48.98h12.242v12.246h-12.242zm0-24.488h12.242v12.242h-12.242zm24.488-48.98h12.246v12.246h-12.246zm0 24.488h12.246v12.246h-12.246zm0 48.98h12.246v12.246h-12.246zm-195.92 24.488h12.246v12.246h-12.246zm24.488 0h12.246v12.246h-12.246zm24.492 0h12.242v12.246h-12.242zm24.488 0h12.246v12.246h-12.246zm24.492 0h12.242v12.246h-12.242zm24.488 0h12.246v12.246h-12.246zm24.488 0h12.246v12.246h-12.246zm24.492 0h12.242v12.246h-12.242zm24.488 0h12.246v12.246h-12.246zm-48.98 220.41h12.246v12.246h-12.246zm24.492 0h12.242v12.246h-12.242zm24.488 0h12.246v12.246h-12.246zm24.492 0h12.242v12.246h-12.242zm-73.473 24.488h12.246v12.246h-12.246zm24.492 0h12.242v12.246h-12.242zm24.488 0h12.246v12.246h-12.246zm24.492 0h12.242v12.246h-12.242zm24.488-24.488h12.246v12.246h-12.246zm0 24.488h12.246v12.246h-12.246zm-48.98 24.492h12.246v12.242h-12.246zm24.492 0h12.242v12.242h-12.242zm24.488 0h12.246v12.242h-12.246zm24.488 0h12.246v12.242h-12.246zm48.98 0h12.246v12.242h-12.246zm0 24.488h12.246v12.246h-12.246zm-318.37-269.39h12.246v12.246h-12.246zm24.488 0h12.246v12.246h-12.246zm24.492 0h12.242v12.246h-12.242zm24.488 0h12.246v12.246h-12.246zm24.492 0h12.242v12.246h-12.242zm24.488 0h12.246v12.246h-12.246zm24.488 0h12.246v12.246h-12.246zm24.492 0h12.242v12.246h-12.242zm24.488-73.469h12.246v12.242h-12.246zm24.492-48.98h12.242v12.246h-12.242zm0 24.488h12.242v12.246h-12.242zm0 48.98h12.242v12.246h-12.242zm0-24.488h12.242v12.242h-12.242zm24.488-48.98h12.246v12.246h-12.246zm-269.39-24.488h12.242v12.242h-12.242zm24.488 0h12.246v12.242h-12.246zm-24.488-24.492h12.242v12.246h-12.242zm24.488 0h12.246v12.246h-12.246zm24.488 24.492h12.246v12.242h-12.246zm24.492 0h12.242v12.242h-12.242zm24.488 0h12.246v12.242h-12.246zm24.492 0h12.242v12.242h-12.242zm24.488 0h12.246v12.242h-12.246zm-48.98-24.492h12.246v12.246h-12.246zm24.492 0h12.242v12.246h-12.242zm0-24.488h12.242v12.242h-12.242zm24.488 24.488h12.246v12.246h-12.246zm24.488 24.492h12.246v12.242h-12.246zm24.492 0h12.242v12.242h-12.242zm24.488 0h12.246v12.242h-12.246zm24.492 0h12.242v12.242h-12.242zm24.488 0h12.246v12.242h-12.246zm0-24.492h12.246v12.246h-12.246zm0 73.469h12.246v12.246h-12.246zm24.488-24.488h12.246v12.246h-12.246zm0 24.488h12.246v12.246h-12.246zm24.492-24.488h12.242v12.246h-12.242zm0 24.488h12.242v12.246h-12.242zm24.488-24.488h12.246v12.246h-12.246zm24.488 0h12.246v12.246h-12.246zm24.492 0h12.246v12.246h-12.246zm-48.98 24.488h12.246v12.246h-12.246zm-24.488 24.492h12.242v12.242h-12.242zm-416.33 48.977h12.246v12.246h-12.246zm24.488 24.492h12.246v12.246h-12.246zm24.492 0h12.246v12.246h-12.246zm-122.45-24.492h12.246v12.246h-12.246zm0-48.977h12.246v12.242h-12.246z" fill="currentColor" fill-rule="evenodd"/>
</svg>
