<?xml version="1.0" encoding="UTF-8"?>
<svg width="1200pt" height="1200pt" version="1.1" viewBox="0 0 1200 1200" xmlns="http://www.w3.org/2000/svg">
 <g fill="currentColor">
  <path d="m204 477.73 39.73 80.496 88.824 12.914-64.27 62.652 15.168 88.477-79.453-41.773-79.453 41.773 15.168-88.477-64.27-62.652 88.824-12.914z"/>
  <path d="m600 477.73 39.73 80.496 88.824 12.914-64.27 62.652 15.168 88.477-79.453-41.773-79.453 41.773 15.168-88.477-64.27-62.652 88.824-12.914z"/>
  <path d="m996 477.73 39.73 80.496 88.824 12.914-64.27 62.652 15.168 88.477-79.453-41.773-79.453 41.773 15.168-88.477-64.27-62.652 88.824-12.914z"/>
 </g>
</svg>
