<?xml version="1.0" encoding="UTF-8"?>
<svg width="1200" height="1200" version="1.1" viewBox="-100 -100 1400 1400" xmlns="http://www.w3.org/2000/svg">
 <g>
  <path d="m1200 600c0 214.36-114.36 412.44-300 519.62-185.64 107.18-414.36 107.18-600 0-185.64-107.18-300-305.26-300-519.62s114.36-412.44 300-519.62c185.64-107.18 414.36-107.18 600 0 185.64 107.18 300 305.26 300 519.62" fill="#cf1a05"/>
  <path d="m591.69 253.88h-2.2656c-67.258 0-119.4 60.457-108.82 126.96l47.609 302.29c4.5352 30.23 30.984 52.898 61.969 52.898h0.75391c30.984 0 57.434-22.672 61.969-52.898l47.609-302.29c10.582-66.504-40.805-126.2-108.82-126.96z" fill="#fff"/>
  <path d="m668.77 856.19c0 42.992-34.852 77.84-77.84 77.84-42.988 0-77.84-34.848-77.84-77.84 0-42.988 34.852-77.836 77.84-77.836 42.988 0 77.84 34.848 77.84 77.836" fill="#fff"/>
 </g>
</svg>
