<svg height='100px' width='100px'  fill="#0070c1" xmlns="http://www.w3.org/2000/svg" data-name="Layer 1" viewBox="0 0 48 48" x="0px" y="0px"><path d="M27.6378,41.02654A17.51323,17.51323,0,0,1,6.501,23.90648a1.49992,1.49992,0,0,0-2.99984,0A20.51292,20.51292,0,0,0,28.25877,43.96137a1.4999,1.4999,0,0,0-.621-2.93483ZM26.46486,6.57943a17.50068,17.50068,0,0,1,6.83962,32.14725,1.4995,1.4995,0,0,0,1.59792,2.53785A20.4994,20.4994,0,0,0,26.88384,3.60959a1.49962,1.49962,0,1,0-.419,2.96984ZM7.76089,17.37882A17.56855,17.56855,0,0,1,18.20932,7.38938a1.5,1.5,0,1,0-.99294-2.83083A20.57845,20.57845,0,0,0,4.97805,16.25791a1.50005,1.50005,0,1,0,2.78284,1.12091Z" fill-rule="evenodd"></path></svg>