<?xml version="1.0" encoding="UTF-8"?>
<svg width="1200pt" height="1200pt" version="1.1" viewBox="0 0 1200 1200" xmlns="http://www.w3.org/2000/svg">
 <path d="m980.25 844.12c7.8398 6.0781 12.953 15.016 14.219 24.855 1.2656 9.8398-1.4219 19.781-7.4688 27.645-67.516 88.059-163.05 150.45-270.83 176.86-107.77 26.414-221.33 15.27-321.92-31.594-100.58-46.859-182.17-126.63-231.28-226.14-49.109-99.504-62.805-212.79-38.82-321.12s84.211-205.26 170.73-274.74c86.52-69.477 194.15-107.36 305.12-107.39 13.398 0 25.777 7.1484 32.477 18.75 6.6992 11.602 6.6992 25.898 0 37.5-6.6992 11.602-19.078 18.75-32.477 18.75-93.91-0.015625-185.02 32.016-258.26 90.793-73.238 58.781-124.23 140.79-144.54 232.48s-8.7344 187.56 32.824 271.78c41.562 84.211 110.61 151.73 195.74 191.38 85.129 39.652 181.24 49.07 272.45 26.695 91.207-22.375 172.05-75.199 229.16-149.75 6.0859-7.9492 15.098-13.137 25.031-14.406 9.9297-1.2656 19.957 1.4883 27.844 7.6562zm-13.125-467.25c7.7734 0.058594 15.375-2.3008 21.75-6.75 8.1328-5.7969 13.617-14.602 15.234-24.457 1.6211-9.8555-0.75781-19.949-6.6094-28.043-7.5938-10.668-20.203-16.602-33.266-15.652-13.059 0.94922-24.68 8.6406-30.652 20.297-5.9727 11.652-5.4375 25.574 1.418 36.734 6.8516 11.156 19.031 17.93 32.125 17.871zm-99.75-101.62c13.031-0.035156 25.105-6.8281 31.902-17.945 6.793-11.121 7.3281-24.969 1.4141-36.578-5.9141-11.609-17.43-19.316-30.418-20.355-12.988-1.043-25.586 4.7344-33.273 15.254-5.4805 7.5-7.9844 16.77-7.0195 26.008 0.96094 9.2422 5.3203 17.797 12.227 24.004 6.9102 6.2109 15.879 9.6367 25.168 9.6133zm126.75 202.88c2.4766 7.9023 7.4961 14.762 14.281 19.512 6.7812 4.7461 14.945 7.1172 23.219 6.7383 3.6016 0.57422 7.2734 0.57422 10.875 0 9.5078-2.9297 17.457-9.5195 22.105-18.316 4.6484-8.793 5.6094-19.074 2.6758-28.582-2.9336-9.5039-9.5273-17.453-18.324-22.098-8.7969-4.6445-19.078-5.6055-28.582-2.668s-17.449 9.5312-22.094 18.332c-4.6406 8.7969-5.5977 19.078-2.6562 28.582zm43.5 234.38c-9.3984-3.3594-19.746-2.832-28.754 1.4609-9.0117 4.293-15.938 12-19.246 21.414-4.4219 12.66-1.7539 26.719 7 36.879 8.7539 10.156 22.266 14.875 35.438 12.375 13.176-2.5039 24.016-11.844 28.438-24.504 3.2422-9.3516 2.6602-19.605-1.625-28.523-4.2852-8.9219-11.926-15.789-21.25-19.102zm13.125-142.5c-9.9453 0-19.484 3.9492-26.516 10.984-7.0352 7.0312-10.984 16.57-10.984 26.516s3.9492 19.484 10.984 26.516c7.0312 7.0352 16.57 10.984 26.516 10.984 13.398 0 25.777-7.1484 32.477-18.75 6.6992-11.602 6.6992-25.898 0-37.5-6.6992-11.602-19.078-18.75-32.477-18.75zm-309.75-360c9.1445-0.45312 17.805-4.2383 24.352-10.637 6.5469-6.4023 10.527-14.973 11.188-24.105 0.66406-9.1328-2.0391-18.188-7.5938-25.465-5.5547-7.2773-13.578-12.27-22.562-14.039-8.9805-1.7695-18.301-0.19141-26.199 4.4375-7.9023 4.625-13.836 11.984-16.684 20.684-3.8438 11.734-1.6641 24.609 5.8281 34.426 7.4961 9.8164 19.34 15.312 31.672 14.699zm-103.5 105.38c0-13.398-7.1484-25.777-18.75-32.477-11.602-6.6992-25.898-6.6992-37.5 0-11.602 6.6992-18.75 19.078-18.75 32.477v284.62c0.03125 7.75 2.4648 15.305 6.9609 21.617 4.5 6.3125 10.848 11.074 18.164 13.633l199.88 70.125c3.9688 1.4414 8.1523 2.2031 12.375 2.25 12.07 0.21875 23.508-5.3828 30.73-15.055 7.2227-9.6719 9.3477-22.23 5.7109-33.742-3.6406-11.512-12.598-20.566-24.066-24.328l-174.75-61.125z" fill="currentColor"/>
</svg>
