<svg xmlns="http://www.w3.org/2000/svg" viewBox="0 0 24 24" x="0px" y="0px" fill="currentColor"><title>link, website, internet, unlink, user interface</title><g data-name="Layer 2"><rect x="9" y="11" width="6" height="2" rx="1" transform="translate(-4.97 12) rotate(-45)"></rect><path d="M20.1,12.39l-1.74,1.73a1,1,0,0,1-1.41,0h0a1,1,0,0,1,0-1.41L18.7,11a4.12,4.12,0,0,0,.4-5.48,4,4,0,0,0-5.93-.3L11.37,7A1,1,0,0,1,10,7h0a1,1,0,0,1,0-1.42l1.81-1.8a6,6,0,0,1,9,.59A6.15,6.15,0,0,1,20.1,12.39Z"></path><path d="M14.12,18.36,12.39,20.1a6.15,6.15,0,0,1-8,.67,6,6,0,0,1-.59-9L5.64,9.88a1,1,0,0,1,1.41,0h0a1,1,0,0,1,0,1.41L5.3,13.05a4.12,4.12,0,0,0-.4,5.48,4,4,0,0,0,5.93.3L12.71,17a1,1,0,0,1,1.41,0h0A1,1,0,0,1,14.12,18.36Z"></path></g></svg>