<?xml version="1.0" encoding="UTF-8"?>
<svg width="1200pt" height="1200pt" version="1.1" viewBox="0 0 1200 1200" xmlns="http://www.w3.org/2000/svg">
 <path d="m1087.5 243.75h-975c-14.918 0-29.227 5.9258-39.773 16.477-10.551 10.547-16.477 24.855-16.477 39.773v600c0 14.918 5.9258 29.227 16.477 39.773 10.547 10.551 24.855 16.477 39.773 16.477h975c14.918 0 29.227-5.9258 39.773-16.477 10.551-10.547 16.477-24.855 16.477-39.773v-600c0-14.918-5.9258-29.227-16.477-39.773-10.547-10.551-24.855-16.477-39.773-16.477zm-475.31 433.69c-3.3945 2.9062-7.7188 4.5-12.188 4.5s-8.793-1.5938-12.188-4.5l-462.19-396.19h948.75zm475.31 241.31h-975c-4.9727 0-9.7422-1.9766-13.258-5.4922-3.5156-3.5156-5.4922-8.2852-5.4922-13.258v-596.81l346.12 296.81-180.19 154.5c-5.0898 4.3555-7.4727 11.094-6.2461 17.68 1.2227 6.5859 5.8711 12.02 12.188 14.25 6.3164 2.2305 13.344 0.92578 18.434-3.4297l184.69-158.25 94.688 81c10.188 8.7148 23.156 13.504 36.562 13.504s26.375-4.7891 36.562-13.504l93.75-81 184.69 158.25c5.0898 4.3555 12.117 5.6602 18.434 3.4297 6.3164-2.2305 10.965-7.6641 12.188-14.25 1.2266-6.5859-1.1562-13.324-6.2461-17.68l-179.25-154.5 346.12-296.81v596.81c0 4.9727-1.9766 9.7422-5.4922 13.258-3.5156 3.5156-8.2852 5.4922-13.258 5.4922z" fill="currentColor"/>
</svg>
