<svg height='100px' width='100px'  fill="currentColor" xmlns="http://www.w3.org/2000/svg" xmlns:xlink="http://www.w3.org/1999/xlink" version="1.1" x="0px" y="0px" viewBox="0 0 512 512" style="enable-background:new 0 0 512 512;" xml:space="preserve"><g><path d="M122.363,408.906c35.396,35.647,82.692,55.268,133.21,55.268c0.096,0,0.194-0.001,0.29-0.001   c50.45-0.074,97.935-19.679,133.709-55.201c35.669-35.418,55.361-82.697,55.447-133.129c0.087-50.67-19.598-98.304-55.429-134.127   c-7.03-7.027-18.427-7.027-25.456,0.003s-7.028,18.427,0.002,25.456c29.013,29.007,44.952,67.577,44.882,108.606   c-0.07,40.79-15.985,79.02-44.813,107.646c-28.999,28.794-67.495,44.686-108.396,44.746c-0.08,0.001-0.155,0.001-0.235,0.001   c-40.852-0.002-79.083-15.847-107.712-44.68c-28.938-28.933-44.878-67.339-44.882-108.144   c-0.004-40.806,15.928-79.215,44.86-108.153c7.029-7.03,7.028-18.427-0.002-25.456c-7.03-7.027-18.427-7.027-25.456,0.003   c-35.731,35.738-55.407,83.188-55.402,133.61C66.985,325.775,86.67,373.222,122.363,408.906z"></path><path d="M254.18,47.827c-9.941,0.001-17.999,8.061-17.998,18.002l0.021,182.657c0.001,9.941,8.061,17.999,18.002,17.998   c9.941-0.001,17.999-8.061,17.998-18.002l-0.021-182.657C272.181,55.884,264.121,47.826,254.18,47.827z"></path></g></svg>