<?xml version="1.0" encoding="UTF-8"?>
<svg width="1200pt" height="1200pt" version="1.1" viewBox="0 0 1200 1200" xmlns="http://www.w3.org/2000/svg">
 <path d="m1093.5 675.47h-143.91-20.391c11.25 8.5547 22.617 17.227 33.867 25.781-9.375-31.172-18.75-62.227-28.008-93.398-14.766-49.219-29.531-98.438-44.297-147.54-3.3984-11.367-6.7969-22.734-10.195-34.102-4.3359-14.297-18.281-26.484-33.867-25.781-15.82 0.70312-29.18 10.43-33.867 25.781-6.3281 20.859-12.656 41.719-19.102 62.578-15.117 49.688-30.234 99.375-45.352 149.18-18.281 60.117-36.562 120.12-54.844 180.23-15.82 52.148-31.758 104.18-47.578 156.33-7.7344 25.312-16.055 50.508-23.086 75.938-0.11719 0.35156-0.23437 0.70312-0.35156 1.0547h67.852c-1.9922-8.2031-3.9844-16.406-5.8594-24.727-5.3906-22.383-10.664-44.766-16.055-67.148-7.8516-32.93-15.703-65.859-23.555-98.789-9.6094-40.312-19.219-80.742-28.945-121.05-10.547-44.18-21.094-88.477-31.641-132.66-11.016-44.648-21.68-89.18-32.344-133.83-9.9609-41.602-19.922-83.203-29.766-124.8-8.3203-35.039-16.758-70.078-25.078-105.12-6.0938-25.312-12.07-50.625-18.164-75.938-2.8125-11.953-5.3906-24.141-8.5547-35.977-0.11719-0.46875-0.23438-1.0547-0.35156-1.5234-3.3984-14.414-18.984-26.484-33.867-25.781-15.469 0.70312-29.766 10.43-33.867 25.781-5.0391 18.984-10.195 37.852-15.234 56.836-12.188 45.469-24.492 91.055-36.68 136.52-14.766 55.078-29.648 110.16-44.414 165.12-13.008 47.461-25.898 95.156-38.672 142.73-6.2109 23.086-13.125 46.055-18.633 69.258-0.11719 0.35156-0.11719 0.58594-0.23438 0.9375 11.25-8.5547 22.617-17.227 33.867-25.781h-153.75-22.031c-18.398 0-35.977 16.172-35.156 35.156 0.82031 19.102 15.469 35.156 35.156 35.156h153.75 22.031c15.352 0 29.883-10.898 33.867-25.781 5.0391-18.984 10.195-37.852 15.234-56.836 12.188-45.469 24.492-91.055 36.68-136.52 14.766-55.078 29.648-110.16 44.414-165.12 12.773-47.578 25.547-95.156 38.438-142.73 6.2109-23.086 13.125-46.055 18.633-69.258 0.11719-0.35156 0.11719-0.58594 0.23438-0.9375h-67.852c1.9922 8.2031 3.9844 16.406 5.8594 24.727 5.3906 22.383 10.664 44.766 16.055 67.148 7.8516 32.93 15.703 65.859 23.555 98.789 9.6094 40.312 19.219 80.742 28.945 121.05 10.547 44.18 21.094 88.477 31.641 132.66 10.664 44.648 21.328 89.297 31.992 133.95 9.9609 41.602 19.922 83.203 29.766 124.8 8.3203 35.039 16.758 70.078 25.078 105.12 6.0938 25.312 12.07 50.625 18.164 75.938 2.8125 11.953 5.3906 24.141 8.5547 35.977 0.11719 0.46875 0.23438 1.0547 0.35156 1.5234 3.3984 14.414 18.984 26.484 33.867 25.781 15.82-0.70312 29.18-10.43 33.867-25.781 6.3281-20.859 12.656-41.719 19.102-62.578 15.117-49.688 30.234-99.375 45.352-149.18 18.281-60.117 36.562-120.12 54.844-180.23 15.82-52.148 31.758-104.18 47.578-156.33 7.7344-25.312 16.055-50.508 23.086-75.938 0.11719-0.35156 0.23438-0.70312 0.35156-1.0547h-67.852c9.375 31.172 18.75 62.227 28.008 93.398 14.766 49.219 29.531 98.438 44.297 147.54 3.3984 11.367 6.7969 22.734 10.195 34.102 4.4531 14.883 18.164 25.781 33.867 25.781h143.91 20.391c18.398 0 35.977-16.172 35.156-35.156-0.11719-19.102-14.766-35.273-34.453-35.273z" fill="currentColor"/>
</svg>
