<?xml version="1.0" encoding="UTF-8"?>
<svg width="1200pt" height="1200pt" version="1.1" viewBox="0 0 1200 1200" xmlns="http://www.w3.org/2000/svg">
 <g fill="currentColor">
  <path d="m600 1140.1c-143.25 0-280.64-56.906-381.93-158.2-101.3-101.29-158.2-238.68-158.2-381.93s56.906-280.64 158.2-381.93c101.29-101.3 238.68-158.2 381.93-158.2s280.64 56.906 381.93 158.2c101.3 101.29 158.2 238.68 158.2 381.93-0.16406 143.2-57.125 280.49-158.38 381.75-101.26 101.26-238.55 158.22-381.75 158.38zm0-1030.3c-129.99 0-254.66 51.641-346.58 143.56s-143.56 216.59-143.56 346.58 51.641 254.66 143.56 346.58 216.59 143.56 346.58 143.56 254.66-51.641 346.58-143.56 143.56-216.59 143.56-346.58c-0.14453-129.95-51.832-254.53-143.72-346.42s-216.47-143.57-346.42-143.72z"/>
  <path d="m600 824.74c-4.3906 0.003906-8.7031-1.1523-12.504-3.3477-3.8008-2.1914-6.957-5.3477-9.1523-9.1523l-146.43-253.64c-2.9414-5.0898-3.9922-11.055-2.9688-16.844 1.0195-5.7891 4.0469-11.031 8.5508-14.809 4.5039-3.7773 10.195-5.8477 16.074-5.8477h292.87c5.8789 0 11.57 2.0703 16.074 5.8477 4.5039 3.7773 7.5312 9.0195 8.5508 14.809 1.0234 5.7891-0.027344 11.754-2.9688 16.844l-146.43 253.64c-2.1953 3.8047-5.3516 6.9609-9.1523 9.1523-3.8008 2.1953-8.1133 3.3516-12.504 3.3477zm-103.14-253.64 103.14 178.64 103.12-178.64z"/>
  <path d="m746.43 425.26h-292.87c-8.9336 0-17.188-4.7656-21.652-12.5-4.4648-7.7383-4.4648-17.266 0-25 4.4648-7.7383 12.719-12.5 21.652-12.5h292.87c8.9336 0 17.188 4.7617 21.652 12.5 4.4648 7.7344 4.4648 17.262 0 25-4.4648 7.7344-12.719 12.5-21.652 12.5z"/>
 </g>
</svg>
