<?xml version="1.0" encoding="UTF-8"?>
<svg width="1200pt" height="1200pt" version="1.1" viewBox="60 100 1000 1000" xmlns="http://www.w3.org/2000/svg">
 <g fill="currentColor">
  <path d="m210 852h780c56.953 0 72-47.098 72-72v-359.99c0-24.91-15.047-72.008-72-72.008h-780c-56.953 0-72 47.098-72 72.008v359.99c0 24.902 15.047 72 72 72zm-48-431.94c0.046875-4.9219 1.7695-48.059 48-48.059h780c46.23 0 47.953 43.137 48 48.008v359.94c-0.046875 4.9141-1.7695 48.051-48 48.051h-780c-46.23 0-47.953-43.137-48-48z"/>
  <path d="m210 582h120c6.6328 0 12-5.3711 12-12v-120c0-6.6289-5.3672-12-12-12h-120c-6.6328 0-12 5.3711-12 12v120c0 6.6289 5.3672 12 12 12zm12-120h96v96h-96z"/>
  <path d="m870 762c10.715 0 20.855-2.418 30-6.6328 9.1445 4.2148 19.285 6.6328 30 6.6328 39.703 0 72-32.297 72-72s-32.297-72-72-72c-10.715 0-20.855 2.418-30 6.6328-9.1445-4.2148-19.285-6.6328-30-6.6328-39.703 0-72 32.297-72 72s32.297 72 72 72zm54.062-119.4c1.9648-0.24609 3.9023-0.60156 5.9375-0.60156 26.473 0 48 21.535 48 48s-21.527 48-48 48c-2.0352 0-3.9727-0.35547-5.9375-0.60156 11.129-12.68 17.938-29.238 17.938-47.398s-6.8086-34.719-17.938-47.398zm-24.062 10.23c10.887 8.8086 18 22.105 18 37.168s-7.1133 28.359-18 37.168c-10.887-8.8086-18-22.105-18-37.168s7.1133-28.359 18-37.168zm-30-10.832c2.0352 0 3.9727 0.35547 5.9375 0.60156-11.129 12.68-17.938 29.238-17.938 47.398s6.8086 34.719 17.938 47.398c-1.9648 0.24609-3.9023 0.60156-5.9375 0.60156-26.473 0-48-21.535-48-48s21.527-48 48-48z"/>
  <path d="m210 672h510c6.6328 0 12-5.3711 12-12s-5.3672-12-12-12h-510c-6.6328 0-12 5.3711-12 12s5.3672 12 12 12z"/>
  <path d="m210 762h270c6.6328 0 12-5.3711 12-12s-5.3672-12-12-12h-270c-6.6328 0-12 5.3711-12 12s5.3672 12 12 12z"/>
 </g>
</svg>
