<svg version="1.1" viewBox="0 0 1200 1200" xmlns="http://www.w3.org/2000/svg">
                                    <g>
                                        <rect width="1200" height="1200" fill="#fff"></rect>
                                        <path d="m262.95 850.14 160.97-138.3c-36.273-49.121-57.434-109.58-57.434-174.57 0-163.23 133-296.24 296.24-296.24s296.24 133 296.24 296.24-133 296.24-296.24 296.24c-65.746 0-125.45-21.914-174.57-57.434l-137.54 160.97c-2.2656 2.2656-4.5352 4.5352-6.8008 6.8008-25.695 21.914-64.992 18.895-87.664-6.8008-22.672-25.695-19.648-64.992 6.8008-86.906zm630.27-312.87c0-126.96-103.53-230.49-230.49-230.49-126.96 0-230.49 103.53-230.49 230.49 0 126.96 103.53 230.49 230.49 230.49 126.96 0 230.49-103.53 230.49-230.49z"></path>
                                        <path d="m541.05 506.29h243.34c17.383 0 30.984 13.602 30.984 30.984 0 17.383-13.602 30.984-30.984 30.984h-243.34c-17.383 0-30.984-13.602-30.984-30.984-0.003906-17.383 14.355-30.984 30.98-30.984z"></path>
                                        <path d="m726.2 452.64h-126.96c-17.383 0-30.984-13.602-30.984-30.984 0-17.383 13.602-30.984 30.984-30.984h126.96c17.383 0 30.984 13.602 30.984 30.984 0 17.383-14.359 30.984-30.984 30.984z"></path>
                                        <path d="m599.24 621.92h126.96c17.383 0 30.984 13.602 30.984 30.984 0 17.383-13.602 30.984-30.984 30.984h-126.96c-17.383 0-30.984-13.602-30.984-30.984 0-16.625 13.602-30.984 30.984-30.984z"></path>
                                    </g>
                                </svg>