<svg height='100px' width='100px'  fill="currentColor" xmlns="http://www.w3.org/2000/svg" xmlns:xlink="http://www.w3.org/1999/xlink" version="1.1" x="0px" y="0px" viewBox="0 0 64 64" enable-background="new 0 0 64 64" xml:space="preserve"><g><g><path d="M58,5.5H6C5.724,5.5,5.5,5.724,5.5,6v52c0,0.276,0.224,0.5,0.5,0.5h52c0.276,0,0.5-0.224,0.5-0.5V6    C58.5,5.724,58.276,5.5,58,5.5z M6.5,6.5h17v51h-17V6.5z M57.5,57.5h-33v-51h33V57.5z"></path><path d="M10,12.5h10c0.276,0,0.5-0.224,0.5-0.5s-0.224-0.5-0.5-0.5H10c-0.276,0-0.5,0.224-0.5,0.5S9.724,12.5,10,12.5z"></path><path d="M20,15.5H10c-0.276,0-0.5,0.224-0.5,0.5s0.224,0.5,0.5,0.5h10c0.276,0,0.5-0.224,0.5-0.5S20.276,15.5,20,15.5z"></path><path d="M20,19.5H10c-0.276,0-0.5,0.224-0.5,0.5s0.224,0.5,0.5,0.5h10c0.276,0,0.5-0.224,0.5-0.5S20.276,19.5,20,19.5z"></path><path d="M20,23.5H10c-0.276,0-0.5,0.224-0.5,0.5s0.224,0.5,0.5,0.5h10c0.276,0,0.5-0.224,0.5-0.5S20.276,23.5,20,23.5z"></path></g></g></svg>