<svg xmlns="http://www.w3.org/2000/svg" data-name="Layer 2" viewBox="0 0 64 64" x="0px" y="0px"><title>shop</title><path d="M58.207,5.793a7.765,7.765,0,0,0-10.968,0,31.042,31.042,0,0,0-5.048,6.794l-12.047.788a4.594,4.594,0,0,0-2.95,1.337L4.844,37.063a4.594,4.594,0,0,0,0,6.5l15.6,15.6a4.6,4.6,0,0,0,6.5,0l22.35-22.35a4.594,4.594,0,0,0,1.337-2.95l.788-12.051a31.422,31.422,0,0,0,6.794-5.044A7.764,7.764,0,0,0,58.207,5.793ZM48.628,33.726a2.589,2.589,0,0,1-.754,1.666L25.523,57.742a2.656,2.656,0,0,1-3.67,0L6.258,42.147a2.6,2.6,0,0,1,0-3.67L28.609,16.126a2.584,2.584,0,0,1,1.665-.754l10.885-.713c-.03.069-.066.138-.1.207a16.153,16.153,0,0,0-1.2,3.882,4.017,4.017,0,0,0-1.164.8,4.071,4.071,0,1,0,5.757,0,4.032,4.032,0,0,0-2.473-1.152,15.465,15.465,0,0,1,.916-2.731c.165-.38.346-.765.54-1.152l5.727-.374.046,0a.658.658,0,0,1,.653.7ZM39.9,21.225a3.486,3.486,0,0,0,2.877,2.882A2.064,2.064,0,0,1,39.9,21.225Zm2.389.491a2.1,2.1,0,0,1-.493-1.342,2.024,2.024,0,0,1,1.835,1.841A2.081,2.081,0,0,1,42.284,21.716ZM51.57,19.4l.29-4.435a2.658,2.658,0,0,0-2.826-2.826l-4.434.29a28.9,28.9,0,0,1,4.053-5.223,5.756,5.756,0,0,1,8.14,8.14A28.864,28.864,0,0,1,51.57,19.4Z"/></svg>