<svg viewBox="0 0 61 60" fill="none" xmlns="http://www.w3.org/2000/svg">
<circle cx="30.8182" cy="29.9393" r="29.9393" fill="#1C1B1B"/>
<path d="M28.3334 34.0003L35.2534 30.0003L28.3334 26.0003V34.0003ZM43.7467 23.5603C43.9201 24.187 44.0401 25.027 44.1201 26.0937C44.2134 27.1603 44.2534 28.0803 44.2534 28.8803L44.3334 30.0003C44.3334 32.9203 44.1201 35.067 43.7467 36.4403C43.4134 37.6403 42.6401 38.4137 41.4401 38.747C40.8134 38.9203 39.6667 39.0403 37.9067 39.1203C36.1734 39.2137 34.5867 39.2537 33.1201 39.2537L31.0001 39.3337C25.4134 39.3337 21.9334 39.1203 20.5601 38.747C19.3601 38.4137 18.5867 37.6403 18.2534 36.4403C18.0801 35.8137 17.9601 34.9737 17.8801 33.907C17.7867 32.8403 17.7467 31.9203 17.7467 31.1203L17.6667 30.0003C17.6667 27.0803 17.8801 24.9337 18.2534 23.5603C18.5867 22.3603 19.3601 21.587 20.5601 21.2537C21.1867 21.0803 22.3334 20.9603 24.0934 20.8803C25.8267 20.787 27.4134 20.747 28.8801 20.747L31.0001 20.667C36.5867 20.667 40.0667 20.8803 41.4401 21.2537C42.6401 21.587 43.4134 22.3603 43.7467 23.5603Z" fill="white"/>
</svg>
