<svg xmlns="http://www.w3.org/2000/svg" xmlns:xlink="http://www.w3.org/1999/xlink" version="1.1" x="0px" y="0px" viewBox="0 0 80 80" style="enable-background:new 0 0 80 80;" xml:space="preserve"><path fill="#919191" d="M69.7941284,18.1945801H10.2081909c-1.7685547,0-3.2070313,1.4384766-3.2070313,3.206543V58.598877  c0,1.7680664,1.4384766,3.206543,3.2070313,3.206543h58.7695313c2.2177734,0,4.0224609-1.8046875,4.0224609-4.0224609V21.4128418  C73.0001831,19.6384277,71.5617065,18.1945801,69.7941284,18.1945801z M71.0001831,57.782959  c0,1.1152344-0.9072266,2.0224609-2.0224609,2.0224609H10.2081909c-0.6660156,0-1.2070313-0.5410156-1.2070313-1.206543v-0.5807495  L27.4718628,36.651123l11.1450195,12.1556396l-5.7485352,5.7716064c-0.3896484,0.3916016-0.3876953,1.0244141,0.0039063,1.4140625  c0.1953125,0.1938477,0.4501953,0.2910156,0.7050781,0.2910156c0.2568359,0,0.5136719-0.0981445,0.7089844-0.2949219  l19.3408203-19.4189453l17.3730469,17.668457V57.782959z M71.0001831,51.3856812L54.3449097,34.4470215  c-0.1875-0.1904297-0.4423828-0.2978516-0.7099609-0.2988281c-0.0009766,0-0.0019531,0-0.0029297,0  c-0.265625,0-0.5205078,0.105957-0.7080078,0.2939453l-12.894104,12.9458618L28.1876831,34.4714355  c-0.1923828-0.2104492-0.4638672-0.3286133-0.7519531-0.3242188c-0.2851563,0.0043945-0.5556641,0.1303711-0.7421875,0.3461914  L9.0011597,54.9595337V21.401123c0-0.6655273,0.5410156-1.206543,1.2070313-1.206543h59.5859375  c0.6650391,0,1.2060547,0.5463867,1.2060547,1.2182617V51.3856812z"/><path fill="#919191" d="M38.7365112,24.204834c-2.5800781,0-4.6796875,2.0991211-4.6796875,4.6791992  c0,2.5805664,2.0996094,4.6796875,4.6796875,4.6796875s4.6796875-2.0991211,4.6796875-4.6796875  C43.4161987,26.3039551,41.3165894,24.204834,38.7365112,24.204834z M38.7365112,31.5637207  c-1.4775391,0-2.6796875-1.2021484-2.6796875-2.6796875s1.2021484-2.6791992,2.6796875-2.6791992  s2.6796875,1.2016602,2.6796875,2.6791992S40.2140503,31.5637207,38.7365112,31.5637207z"/></svg>